<svg width="21" height="20" viewBox="0 0 21 20" fill="none" xmlns="http://www.w3.org/2000/svg">
<g clip-path="url(#clip0_252_2090)">
<path d="M8.7998 17.5C8.7998 17.5 7.5498 17.5 7.5498 16.25C7.5498 15 8.7998 11.25 13.7998 11.25C18.7998 11.25 20.0498 15 20.0498 16.25C20.0498 17.5 18.7998 17.5 18.7998 17.5H8.7998ZM13.7998 10C14.7944 10 15.7482 9.60491 16.4515 8.90165C17.1547 8.19839 17.5498 7.24456 17.5498 6.25C17.5498 5.25544 17.1547 4.30161 16.4515 3.59835C15.7482 2.89509 14.7944 2.5 13.7998 2.5C12.8052 2.5 11.8514 2.89509 11.1482 3.59835C10.4449 4.30161 10.0498 5.25544 10.0498 6.25C10.0498 7.24456 10.4449 8.19839 11.1482 8.90165C11.8514 9.60491 12.8052 10 13.7998 10ZM6.5698 17.5C6.38458 17.1097 6.29217 16.6819 6.2998 16.25C6.2998 14.5562 7.1498 12.8125 8.7198 11.6C7.93628 11.358 7.11977 11.24 6.2998 11.25C1.2998 11.25 0.0498047 15 0.0498047 16.25C0.0498047 17.5 1.2998 17.5 1.2998 17.5H6.5698ZM5.6748 10C6.50361 10 7.29846 9.67076 7.88451 9.08471C8.47056 8.49866 8.7998 7.7038 8.7998 6.875C8.7998 6.0462 8.47056 5.25134 7.88451 4.66529C7.29846 4.07924 6.50361 3.75 5.6748 3.75C4.846 3.75 4.05115 4.07924 3.4651 4.66529C2.87904 5.25134 2.5498 6.0462 2.5498 6.875C2.5498 7.7038 2.87904 8.49866 3.4651 9.08471C4.05115 9.67076 4.846 10 5.6748 10Z" fill="white"/>
</g>
<defs>
<clipPath id="clip0_252_2090">
<rect width="20" height="20" fill="white" transform="translate(0.0498047)"/>
</clipPath>
</defs>
</svg>
