<svg width="20" height="21" viewBox="0 0 20 21" fill="none" xmlns="http://www.w3.org/2000/svg">
<path d="M8.0394 17.8095V15.2539C8.03939 14.6039 8.54282 14.0757 9.16657 14.0713H11.4514C12.0781 14.0713 12.5862 14.6008 12.5862 15.2539V17.8175C12.586 18.3694 13.0087 18.8204 13.5382 18.8334H15.0614C16.5798 18.8334 17.8108 17.5506 17.8108 15.9682V8.69822C17.8027 8.07571 17.5222 7.49114 17.0492 7.11088L11.8398 2.73777C10.9272 1.97633 9.62985 1.97633 8.71723 2.73777L3.53071 7.11882C3.05589 7.49754 2.77495 8.08308 2.7691 8.70615V15.9682C2.7691 17.5506 4.00005 18.8334 5.51849 18.8334H7.0417C7.5843 18.8334 8.02417 18.375 8.02417 17.8095" stroke="white" stroke-width="1.5" stroke-linecap="round" stroke-linejoin="round"/>
</svg>
