<svg width="165" height="161" viewBox="0 0 165 161" fill="none" xmlns="http://www.w3.org/2000/svg">
<g id="Group">
<path id="Path" d="M85.532 38.9685C90.9023 37.4433 96.1739 35.5895 101.317 33.4177C101.825 33.2044 102.385 32.9286 102.554 32.4047C102.682 32.004 102.54 31.5721 102.38 31.1818C100.928 27.4525 98.4062 24.0179 98.1408 20.0249C98.1044 19.4785 98.2188 18.7812 98.7479 18.6459C97.9517 18.0284 98.0332 16.724 98.649 15.926C100.096 14.044 103.679 12.5869 106.028 12.4568C107.04 12.4443 107.871 13.2541 107.884 14.266C108.269 14.5123 108.781 14.1481 109.225 14.2504C109.477 14.3383 109.697 14.5018 109.853 14.7188C112.535 17.7927 114.584 21.3661 115.882 25.2339C116.332 26.5037 116.643 27.8188 116.809 29.1558C117.308 33.8393 115.247 38.5331 112.125 42.0647C109.003 45.5964 104.909 48.115 100.734 50.2971" fill="#1A1C3F"/>
<path id="Path_2" d="M85.6101 39.2529C88.6023 38.6164 91.5303 37.6346 94.4132 36.6233C95.8587 36.1168 97.2949 35.5854 98.7219 35.0292C99.9188 34.5643 101.398 34.2001 102.431 33.4178C103.463 32.6354 103.201 31.5427 102.765 30.4689C102.262 29.2322 101.672 28.0405 101.093 26.8263C100.458 25.571 99.911 24.2726 99.4574 22.9408C99.2666 22.3406 98.3334 19.5843 99.1105 19.2495C99.5251 19.0761 99.565 18.4117 99.2545 18.1342C97.6291 16.6754 100.989 14.7708 102.011 14.2747C103.032 13.7786 107.097 11.9868 107.215 14.2556C107.225 14.5582 107.425 14.8214 107.714 14.9113C108.202 15.0986 108.784 14.7725 109.197 14.9946C109.463 15.1368 109.768 15.6433 109.957 15.8723C110.234 16.2099 110.504 16.5569 110.765 16.913C111.621 18.069 112.389 19.2866 113.065 20.5557C114.477 23.1906 115.667 26.1567 115.979 29.1541C116.587 35.135 113.114 40.5227 108.694 44.226C106.129 46.377 103.197 47.9069 100.368 49.6519C99.532 50.1723 100.261 51.3171 101.121 50.9389C104.045 49.6501 106.821 47.867 109.313 45.8722C111.806 43.8774 113.997 41.4975 115.518 38.6927C117.001 35.9693 117.886 32.8471 117.692 29.7283C117.492 26.5123 116.167 23.2981 114.673 20.4794C113.832 18.903 112.863 17.3981 111.777 15.9798C111.279 15.3241 110.774 14.5921 110.169 14.0319C109.916 13.7824 109.591 13.6181 109.241 13.5618C108.864 13.5097 108.437 13.7352 108.082 13.6034L108.581 14.2591C108.387 10.4655 103.652 12.0388 101.56 12.9911C100.293 13.5687 98.9579 14.3632 98.1148 15.4976C97.3065 16.58 97.2111 18.1845 98.2623 19.1403L98.5745 17.9538C96.3646 18.8766 97.8061 22.5592 98.4236 24.129C99.4071 26.6389 101.025 28.9286 101.862 31.4871C102.191 32.488 101.53 32.7482 100.757 33.0812C99.983 33.4143 99.225 33.7265 98.4548 34.0387C97.0336 34.6169 95.6031 35.1685 94.1634 35.6935C91.2822 36.7482 88.3438 37.6398 85.4592 38.6788C85.3021 38.7219 85.2097 38.8842 85.2528 39.0413C85.2959 39.1984 85.4582 39.2909 85.6153 39.2477L85.6101 39.2529Z" fill="#1A1C3F"/>
<path id="Path_3" d="M36.3718 117.494C40.7403 97.8368 46.3662 78.4805 53.2148 59.5443C55.7525 52.5278 61.0587 51.9918 67.8635 53.043C84.7897 55.6571 102.222 58.2104 119.281 61.1956C128.158 62.7464 137.235 64.0976 145.969 66.3405C151.667 67.8027 159.945 69.9467 162.703 75.7975C163.57 77.6431 163.077 79.8131 162.564 81.7905C158.04 99.2117 153.282 116.569 148.288 133.863C147.265 137.407 146.403 140.94 144.875 144.297C142.673 149.128 134.458 154.531 126.398 155.157C123.837 155.355 121.428 153.896 119.043 152.94L84.6336 139.129" fill="white"/>
<path id="Path_4" d="M38.0942 119.941C42.4627 100.284 48.0886 80.928 54.9372 61.9918C57.4749 54.9736 62.7811 54.4394 69.5859 55.4905C86.5121 58.1028 103.945 60.6562 121.003 63.6431C129.881 65.1939 138.958 66.5469 147.691 68.7897C153.39 70.252 161.667 72.3959 164.425 78.245C165.292 80.0924 164.8 82.2623 164.286 84.2381C159.763 101.66 155.004 119.019 150.011 136.312C148.987 139.855 148.125 143.39 146.597 146.746C144.396 151.575 136.181 156.98 128.12 157.606C125.56 157.804 123.15 156.345 120.765 155.39L86.3491 141.579" fill="#4747E2"/>
<path id="Path_5" d="M96.146 67.1835C100.172 65.9571 104.259 64.7863 108.462 64.5469C112.665 64.3075 117.039 65.0673 120.519 67.4315C122.835 69.0031 124.654 71.2095 126.188 73.5495C129.262 78.2515 131.287 83.5608 132.125 89.1158C132.385 90.8608 132.534 92.6457 133.166 94.2918C133.331 94.7185 133.541 95.1591 133.907 95.421C135.202 96.3785 136.933 94.6821 138.534 94.8573C139.589 94.9718 140.404 95.9449 140.606 96.9856C140.807 98.0264 140.505 99.1036 140.057 100.065C138.585 103.223 135.636 105.414 132.63 107.166C129.355 109.074 125.778 110.647 121.995 110.904C121.338 110.949 120.647 110.947 120.061 110.651C119.475 110.354 119.1 109.848 118.769 109.313C117.636 107.487 117.114 105.36 116.488 103.303C114.763 97.6552 112.151 92.3265 109.549 87.0256C109.435 86.7931 109.298 86.5399 109.055 86.4497C108.784 86.3473 108.489 86.4844 108.228 86.611C104.802 88.2519 100.809 88.1461 97.0359 87.6882C94.1738 87.3413 91.2683 86.7862 88.7688 85.3482C85.9847 83.7472 83.8772 81.1279 82.5017 78.2259C81.1261 75.3239 80.4392 72.1427 80.042 68.9562" fill="#1A1C3F"/>
<path id="Path_6" d="M96.2431 67.5339C101.457 66.0543 106.874 64.585 112.345 65.2303C114.829 65.5235 117.291 66.2711 119.435 67.5842C121.579 68.8973 123.273 70.7307 124.697 72.7446C127.675 76.9621 129.777 81.7337 130.88 86.7775C131.435 89.3222 131.455 92.0611 132.403 94.5034C132.765 95.4366 133.339 96.2588 134.38 96.4566C135.338 96.6405 136.238 96.1964 137.119 95.8946C138.248 95.5095 139.374 95.6327 139.721 96.977C140.021 98.1513 139.39 99.4505 138.805 100.434C137.625 102.413 135.799 103.954 133.898 105.215C131.777 106.652 129.495 107.837 127.098 108.743C125.903 109.189 124.671 109.533 123.417 109.771C122.266 109.981 120.751 110.332 119.886 109.336C119.02 108.34 118.555 106.946 118.151 105.723C117.747 104.5 117.402 103.218 116.992 101.976C116.115 99.3667 115.103 96.8047 113.96 94.3005C112.841 91.8061 111.639 89.3465 110.42 86.8972C109.953 85.9571 109.294 85.3135 108.177 85.7264C106.935 86.186 105.794 86.6821 104.472 86.9146C101.978 87.3534 99.3879 87.1522 96.8901 86.833C94.3455 86.5087 91.7331 86.0004 89.4626 84.7515C85.0393 82.3231 82.7236 77.5824 81.6083 72.8574C81.3085 71.5685 81.074 70.2653 80.9058 68.9528C80.7635 67.8721 79.0463 67.8496 79.1833 68.9528C79.8338 74.2173 81.2857 79.5633 85.0515 83.4939C88.7791 87.3829 94.1217 88.389 99.2925 88.7341C101.981 88.9076 104.795 88.8001 107.351 87.8668C107.669 87.7506 108.593 87.2302 108.781 87.3465C108.968 87.4627 109.096 87.9865 109.187 88.1721C109.377 88.5659 109.57 88.9579 109.761 89.3517C110.408 90.6821 111.046 92.0143 111.669 93.3569C112.936 96.0643 114.06 98.8366 115.036 101.662C115.939 104.321 116.467 107.195 117.917 109.631C118.545 110.684 119.358 111.561 120.613 111.784C121.867 112.006 123.275 111.77 124.527 111.534C127.282 111.013 129.891 109.841 132.333 108.483C134.508 107.268 136.68 105.881 138.404 104.075C140.009 102.394 141.684 99.99 141.56 97.5546C141.438 95.2181 139.469 93.565 137.168 94.2276C136.233 94.4982 134.758 95.506 134.076 94.4011C133.395 93.2961 133.268 91.591 133.089 90.2988C132.328 84.7862 130.675 79.5217 127.834 74.7134C125.206 70.2659 121.671 66.3595 116.595 64.8262C111.263 63.2095 105.605 64.0543 100.345 65.52C98.9022 65.9224 97.4764 66.3873 96.0506 66.84C95.6065 66.9823 95.7886 67.6726 96.2448 67.5425L96.2431 67.5339Z" fill="#1A1C3F"/>
<path id="Path_7" d="M139.893 97.4072C136.424 98.0004 133.084 99.4661 130.179 101.423C128.767 102.372 127.442 103.446 126.221 104.63C125.579 105.254 124.969 105.908 124.392 106.592C123.837 107.248 123.145 107.98 122.802 108.764C122.573 109.284 123.175 109.862 123.638 109.409C124.234 108.824 124.668 108.047 125.199 107.398C125.73 106.75 126.24 106.176 126.81 105.6C128.028 104.35 129.364 103.221 130.8 102.229C133.634 100.276 136.748 98.9336 140.051 98.0004C140.437 97.8911 140.271 97.343 139.888 97.4072H139.893Z" fill="#34C6A0"/>
<path id="Path_8" d="M110.11 74.4601C109.024 75.8929 108.59 77.997 108.387 79.742C108.171 81.6737 108.312 83.6286 108.802 85.5095C108.975 86.1565 109.983 85.8807 109.804 85.2337C109.319 83.4971 109.15 81.6876 109.305 79.8912C109.393 78.989 109.555 78.0956 109.789 77.2199C110.012 76.3526 110.396 75.5373 110.625 74.6769C110.711 74.3491 110.293 74.219 110.104 74.4601H110.11Z" fill="#34C6A0"/>
<g id="Group_2">
<path id="Path_9" d="M63.9727 66.1028C63.3813 65.9794 62.799 66.3485 62.6582 66.936C62.5174 67.5235 62.8692 68.1165 63.4523 68.2745C62.7134 69.2962 62.8504 70.6856 63.036 71.9328C64.3439 80.7515 66.4601 89.676 71.3621 97.1209C72.4133 98.715 73.6171 100.257 75.1782 101.345C78.415 103.584 82.696 103.562 86.5849 102.941C89.9102 102.42 93.6274 101.124 94.8468 97.9848C95.5667 96.1322 95.2215 94.0385 94.6335 92.1392C93.2076 87.5234 90.4566 83.4332 88.6734 78.9441C87.5397 76.0869 86.8043 73.0875 86.4878 70.0299" fill="#1A1C3F"/>
<path id="Path_10" d="M63.9728 65.7039C62.1272 65.4576 61.5097 68.0161 63.1922 68.7325L63.0031 68.0109C62.2434 69.1332 62.2573 70.4393 62.4273 71.7437C62.6233 73.2546 62.8644 74.7619 63.1211 76.2641C63.6419 79.3393 64.3474 82.3804 65.2338 85.3708C66.1183 88.3494 67.2719 91.2413 68.6805 94.0108C70.0179 96.6127 71.5998 99.3638 73.834 101.296C76.0178 103.187 78.7828 104 81.6397 104.124C84.3844 104.249 87.13 103.897 89.7541 103.083C92.0213 102.356 94.3248 101.071 95.4142 98.8486C96.7723 96.0732 95.905 92.8989 94.8573 90.1756C93.5911 86.8885 91.8062 83.8408 90.3231 80.6544C89.5309 78.966 88.8743 77.2172 88.3595 75.4246C87.8392 73.5876 87.6171 71.7004 87.1609 69.8548C86.9736 69.095 85.8444 69.2789 85.8235 70.0282C85.7438 72.9285 86.703 76.0282 87.7212 78.7186C88.7394 81.4089 90.0872 83.9102 91.3639 86.467C92.6405 89.0238 94.0785 91.872 94.3769 94.7792C94.6457 97.395 93.4835 99.4228 91.2025 100.653C89.095 101.789 86.5712 102.202 84.2104 102.387C81.5929 102.594 78.7932 102.429 76.4394 101.156C73.9519 99.8096 72.3249 97.3308 70.9199 94.9562C69.4898 92.5138 68.2918 89.9429 67.3414 87.2771C66.2679 84.2476 65.4032 81.1481 64.7534 78.0004C64.4273 76.4757 64.1428 74.9441 63.8861 73.4072C63.6293 71.8704 63.0517 69.9484 63.9225 68.5382C64.0019 68.3963 64.0124 68.2259 63.951 68.0753C63.8895 67.9248 63.7628 67.8104 63.6068 67.7646C62.7759 67.4506 63.2477 66.481 63.9815 66.5052C64.5157 66.5243 64.4793 65.7646 63.9815 65.6987L63.9728 65.7039Z" fill="#1A1C3F"/>
<path id="Path_11" d="M36.7551 117.6C39.1732 106.911 41.9584 96.3143 45.1107 85.8096C46.688 80.5607 48.3498 75.339 50.096 70.1444C50.9528 67.6004 51.8311 65.0638 52.7308 62.5347C53.4923 60.396 54.1341 58.1063 55.586 56.311C57.7108 53.6883 60.9754 53.0812 64.1896 53.2303C66.4879 53.3379 68.762 53.7715 71.0326 54.1237C73.705 54.5388 76.3798 54.947 79.0568 55.3483C90.0715 57.0309 101.086 58.7152 112.078 60.5521C122.795 62.3491 133.615 63.9502 144.169 66.566C147.934 67.4992 151.775 68.4497 155.291 70.1219C158.562 71.683 162.689 74.4792 162.443 78.5815C162.37 79.827 162.009 81.0447 161.697 82.2467C161.35 83.5766 161.003 84.9065 160.656 86.2363C159.927 89.0117 159.193 91.7818 158.453 94.5468C157.031 99.8662 155.591 105.178 154.136 110.481C152.648 115.899 151.139 121.309 149.608 126.713C148.833 129.447 148.038 132.174 147.272 134.909C146.578 137.395 145.894 139.887 144.977 142.304C144.283 144.149 143.416 145.825 142.028 147.254C140.494 148.809 138.747 150.138 136.84 151.202C134.833 152.365 132.684 153.263 130.446 153.874C127.979 154.534 125.546 154.902 123.09 154.03C120.685 153.176 118.351 152.04 115.978 151.081L108.267 147.976L92.5139 141.638C89.9432 140.597 87.369 139.571 84.7914 138.561C84.0785 138.281 83.7854 139.416 84.4775 139.7C95.2667 144.13 106.129 148.389 116.96 152.72C118.304 153.258 119.639 153.816 120.963 154.394C122.059 154.873 123.173 155.343 124.352 155.573C126.58 156.011 129.013 155.464 131.161 154.845C135.407 153.631 139.554 151.412 142.692 148.271C144.063 146.938 145.154 145.346 145.905 143.587C146.959 141.105 147.69 138.507 148.422 135.915C149.983 130.38 151.603 124.862 153.162 119.327C156.304 108.183 159.338 97.0088 162.264 85.8044C162.916 83.3066 163.936 80.6249 163.896 78.0143C163.867 75.99 162.838 74.2277 161.508 72.7619C158.916 69.9103 155.157 68.3318 151.561 67.1783C141.742 64.03 131.385 62.6683 121.253 60.9233C109.886 58.9736 98.504 57.1297 87.1054 55.3917C81.4645 54.5278 75.823 53.6669 70.1809 52.8088C66.5053 52.2486 62.5035 51.4402 58.8748 52.6857C55.246 53.9311 53.5096 57.0569 52.2833 60.5018C50.3822 65.8212 48.5788 71.1719 46.8731 76.5538C43.4594 87.321 40.4527 98.2068 37.8531 109.211C37.2044 111.926 36.5834 114.653 35.9902 117.39C35.8809 117.888 36.6424 118.101 36.7551 117.6Z" fill="#1A1C3F"/>
</g>
<path id="Path_12" d="M72.1167 42.2399C71.8964 35.3987 68.6718 29.057 67.0656 22.4048C66.8592 21.5496 66.6978 20.5765 67.187 19.8445C67.463 19.4843 67.8139 19.1884 68.2156 18.9772C71.1001 17.2282 74.3056 16.0745 77.6432 15.5843C77.9901 15.5323 78.3769 15.4907 78.7047 15.6398C79.0707 15.8133 79.298 16.1758 79.4836 16.5349C79.9064 17.3512 80.233 18.2139 80.4567 19.1056C80.6423 19.8445 80.7654 20.6234 81.1939 21.253C81.4535 21.634 81.8383 21.912 82.2815 22.0388C83.0048 22.2173 83.4644 22.9277 83.3309 23.6606C83.3188 23.7196 83.3049 23.7803 83.2893 23.8341C83.1852 24.2365 82.9944 24.6129 82.9216 25.0223C82.8279 25.5427 82.9216 26.0631 83.0135 26.5834C83.7015 30.4708 84.1044 34.4032 84.219 38.3492" fill="white"/>
<path id="Path_13" d="M70.6839 43.0569C70.4636 36.2174 67.239 29.874 65.6327 23.2235C65.4263 22.3666 65.265 21.3952 65.7559 20.6632C66.032 20.3031 66.3829 20.0072 66.7845 19.7959C69.6714 18.0467 72.8792 16.893 76.219 16.4031C76.5659 16.351 76.9527 16.3094 77.2788 16.4568C77.6466 16.6303 77.8738 16.9946 78.0594 17.3519C78.4809 18.1692 78.8069 19.0324 79.0308 19.9243C79.2146 20.6632 79.3395 21.4421 79.768 22.07C80.0264 22.4514 80.4108 22.7296 80.8538 22.8558C81.5779 23.0343 82.0378 23.7458 81.9033 24.4794C81.8929 24.5383 81.879 24.5973 81.8634 24.6528C81.7576 25.0535 81.5685 25.4317 81.4939 25.8393C81.4002 26.3597 81.4939 26.88 81.5876 27.4004C82.2723 31.2851 82.6723 35.2146 82.7844 39.1575" fill="#F7CEBF"/>
<path id="Path_14" d="M80.0004 13.9347C79.1912 14.8045 78.2626 15.555 77.2424 16.1637C76.4584 16.632 75.6154 17.0188 74.9302 17.6225C74.441 18.0561 73.9692 18.6268 73.317 18.6632C73.6306 19.7849 73.4615 20.9866 72.8504 21.9781C72.7316 22.1321 72.6465 22.3094 72.6006 22.4984C72.5893 22.6429 72.6052 22.7882 72.6475 22.9269C72.7481 23.3415 72.866 23.7526 72.9944 24.1585C72.9631 23.3799 72.3956 22.7273 71.6289 22.5884C70.8622 22.4494 70.1018 22.8613 69.7992 23.5793C69.4967 24.2974 69.7332 25.1293 70.3682 25.5808C70.8626 25.9277 71.5148 25.9937 72.0213 26.325C71.4766 26.8847 70.9192 27.4305 70.3491 27.9624C69.8808 28.3995 69.402 29.0223 68.6822 28.8904C68.2711 28.8159 68.0629 28.0006 67.9588 27.6589C67.7958 27.1281 67.6813 26.5765 67.4194 26.0821L65.8582 23.1125C65.6611 22.7606 65.4873 22.3961 65.3379 22.0214C64.886 20.8108 64.9673 19.4655 65.5616 18.3181C66.1716 17.1774 67.269 16.3777 68.5417 16.1463C68.7099 16.1378 68.8722 16.0819 69.01 15.985C69.0933 15.8963 69.1582 15.792 69.2008 15.678C69.4925 15.0462 69.9344 14.4953 70.4879 14.0735C71.265 13.4837 72.2225 13.1784 73.1453 12.8853L77.8981 11.3849C78.3647 11.2374 78.866 11.09 79.3309 11.2426C79.7957 11.3953 80.134 11.992 79.8513 12.3875C80.3716 12.3875 80.866 12.214 81.3794 12.1689C81.8929 12.1238 82.4878 12.2799 82.7151 12.7431C82.9284 13.1715 82.7428 13.6936 82.467 14.0839C82.1912 14.4742 81.8304 14.8107 81.6362 15.2478C82.0455 15.2027 82.4931 15.1819 82.8382 15.4109C83.4575 15.822 83.3586 16.8332 82.8382 17.3606C82.3179 17.8879 81.539 18.0544 80.8088 18.2018C80.5799 17.1886 80.009 16.2851 79.1921 15.6433" fill="#34C6A0"/>
<path id="Path_15" d="M72.7861 23.4317C72.8538 23.6797 72.9266 23.9243 73.0047 24.1689C72.9919 23.9092 72.9169 23.6564 72.7861 23.4317L72.7861 23.4317Z" fill="#4747E2"/>
<path id="Path_16" d="M71.6309 22.5921C72.1195 22.6912 72.541 22.9975 72.7862 23.4317C72.7399 23.2674 72.6965 23.1027 72.6561 22.9373C72.6138 22.7987 72.598 22.6533 72.6092 22.5088C72.6551 22.3198 72.7402 22.1425 72.859 21.9885C73.4701 20.997 73.6392 19.7953 73.3256 18.6736C73.9778 18.639 74.4496 18.0683 74.9388 17.6329C75.624 17.0292 76.467 16.6424 77.251 16.1741C77.5771 15.9815 77.8928 15.7699 78.1998 15.5479C78.0185 15.5496 77.8376 15.5653 77.6587 15.5947C74.3186 16.0846 71.1106 17.2388 68.2242 18.9893C67.8225 19.2005 67.4715 19.4964 67.1955 19.8566C66.7064 20.5886 66.8677 21.5618 67.0741 22.4169C67.6032 24.6077 68.3074 26.7638 69.0221 28.9147C69.565 28.8419 69.9674 28.3458 70.3595 27.9798C70.9307 27.4478 71.4881 26.902 72.0316 26.3423C71.5251 26.011 70.8729 25.9503 70.3785 25.5982C69.7453 25.1455 69.5102 24.3145 69.8124 23.5972C70.1145 22.8798 70.8733 22.4675 71.6396 22.6043L71.6309 22.5921Z" fill="#4747E2"/>
<g id="Group_3">
<path id="Path_17" d="M72.4739 42.2399C72.46 38.5175 71.584 34.8765 70.5086 31.3328C69.9483 29.4889 69.3533 27.6537 68.774 25.815C68.5086 24.972 68.2536 24.1255 68.0229 23.2721C67.8026 22.4603 67.3481 21.3345 67.6413 20.4967C67.9344 19.6589 69.1764 19.1906 69.8876 18.8072C71.5458 17.9154 73.3028 17.2209 75.1226 16.7378C76.0003 16.5071 77.1486 16.0978 78.0576 16.1672C78.9994 16.24 79.3602 17.6312 79.6187 18.3909C79.9066 19.2461 80.0177 20.1619 80.3802 20.9928C80.6396 21.6316 81.1274 22.151 81.7488 22.4499C82.2397 22.6754 82.7895 22.7222 82.8104 23.4213C82.8225 23.9 82.4843 24.4117 82.3941 24.8783C82.2119 25.8167 82.5051 26.8124 82.656 27.7352C82.8445 28.9089 83.0081 30.0862 83.1469 31.2668C83.4192 33.619 83.584 35.978 83.6551 38.344C83.6759 39.0778 84.819 39.0812 84.7965 38.344C84.7219 35.978 84.5554 33.6172 84.2761 31.2668C84.1535 30.2099 84.0101 29.1558 83.8459 28.1047C83.6603 26.9182 83.2995 25.7578 83.6464 24.58C83.8615 23.848 84.0853 23.1836 83.6829 22.4655C83.1833 21.5687 82.0627 21.5982 81.584 20.7049C81.1052 19.8115 81.0445 18.717 80.7046 17.7734C80.4149 16.9755 80.0784 16.0041 79.447 15.4057C78.8936 14.8853 78.205 14.8853 77.4903 14.9859C76.3775 15.1431 75.2764 15.3749 74.1946 15.6797C72.2229 16.2305 70.3223 17.0094 68.5311 18.0006C67.8373 18.3857 67.0255 18.7968 66.5849 19.4889C66.0906 20.2643 66.1148 21.1906 66.2692 22.0631C66.6352 24.1134 67.31 26.1671 67.9934 28.1342C69.5788 32.7413 71.395 37.3275 71.7558 42.2365C71.7887 42.6909 72.4739 42.7031 72.4721 42.2365L72.4739 42.2399Z" fill="#1A1C3F"/>
<path id="Path_18" d="M70.3576 42.2764L69.8285 37.7664C69.7834 37.564 69.804 37.3526 69.8875 37.1628C69.9883 37.0233 70.1312 36.92 70.2951 36.8679C74.7063 34.9627 79.484 34.0558 84.2864 34.2122C84.6091 34.2226 84.9803 34.2694 85.1537 34.5591C85.2259 34.7088 85.2661 34.8718 85.2717 35.0379L85.9117 41.0604" fill="#1A1C3F"/>
<path id="Path_19" d="M70.6855 42.2763C70.6392 41.2032 70.5924 40.1289 70.545 39.0535C70.5311 38.7308 70.3229 37.8306 70.4669 37.5548C70.6109 37.279 71.662 37.0344 71.9639 36.9234C73.9612 36.1784 76.0265 35.6299 78.1304 35.2859C79.2218 35.1103 80.322 34.9945 81.4261 34.939C81.9546 34.9089 82.4836 34.8933 83.0133 34.8922C83.3845 34.8922 84.0644 34.7603 84.3888 34.9216C84.7132 35.083 84.6542 35.8132 84.6976 36.2174L84.871 37.8895C84.9855 38.9875 84.9942 40.1723 85.3359 41.2287C85.5527 41.8947 86.4426 41.7282 86.5085 41.0691C86.6525 39.6571 86.3038 38.1202 86.1529 36.7187C86.0523 35.7959 86.2015 34.3301 85.2995 33.7699C84.4599 33.2495 82.9907 33.4906 82.0592 33.5236C80.7258 33.5755 79.3965 33.7058 78.0783 33.9138C75.4431 34.3286 72.8677 35.0601 70.4079 36.0925C69.2943 36.5574 69.0497 37.1003 69.2475 38.266C69.4782 39.6398 69.7679 41.0066 70.0333 42.3752C70.1026 42.7447 70.7028 42.6597 70.6872 42.2868L70.6855 42.2763Z" fill="#1A1C3F"/>
</g>
<path id="Path_20" d="M92.3315 69.6882C87.2795 70.5471 82.1543 70.8987 77.0324 70.7377C73.5076 70.6267 69.9205 70.2589 66.6803 68.8869C63.44 67.5148 60.5242 65.017 59.3394 61.6969C58.7219 59.9623 58.5953 58.0976 58.6005 56.259C58.6126 52.4775 58.5849 46.3717 61.6586 43.6293C64.7045 40.9095 70.571 40.5071 74.4252 39.7421C77.7331 39.0864 81.0688 38.5539 84.4252 38.2157C87.3185 37.9225 91.0167 37.1905 93.7747 38.3891C99.7903 40.991 101.457 50.1844 101.49 55.8878C101.506 58.566 101.24 61.3032 100.13 63.7403C99.0201 66.1774 96.9577 68.2884 94.3593 68.9267" fill="white"/>
<path id="Path_21" d="M90.6162 71.7333C85.5642 72.5922 80.439 72.9438 75.317 72.7828C71.7923 72.6735 68.2052 72.304 64.9649 70.932C61.7247 69.5599 58.8088 67.0638 57.6241 63.742C57.0066 62.0074 56.88 60.1427 56.8852 58.3041C56.8973 54.5226 56.8695 48.4168 59.9433 45.6744C62.9892 42.9546 68.8556 42.5522 72.7099 41.7872C76.0178 41.1315 79.3534 40.599 82.7099 40.2608C85.6032 39.9676 89.3014 39.2356 92.0594 40.4342C98.075 43.0361 99.7419 52.2208 99.7749 57.9311C99.7905 60.6094 99.5251 63.3465 98.415 65.7837C97.3048 68.2208 95.2424 70.3318 92.6439 70.9719" fill="#EF6348"/>
<path id="Path_22" d="M92.224 69.298C87.3116 70.0743 82.3357 70.3758 77.3655 70.1982C72.9769 70.0386 68.3681 69.5044 64.6161 67.0326C63.0325 65.9918 61.6326 64.6301 60.6873 62.9753C59.5702 61.0187 59.3135 58.7828 59.2996 56.5573C59.2805 53.2737 59.225 49.7056 60.4791 46.6129C61.8564 43.22 65.3672 42.1463 68.6751 41.4542C70.4305 41.0882 72.2085 40.847 73.9726 40.5279C76.2883 40.1081 78.5936 39.6606 80.9249 39.3258C83.1295 39.0153 85.3516 38.7638 87.5684 38.5452C89.5597 38.3492 91.7314 38.2139 93.6117 39.0656C96.5189 40.377 98.2431 43.3622 99.2474 46.2573C100.413 49.6224 100.878 53.2564 100.809 56.8106C100.717 61.3951 99.211 66.9944 94.2171 68.3942C93.5406 68.5833 93.8251 69.6189 94.5068 69.4471C98.9404 68.3318 101.315 64.0213 101.927 59.7715C102.448 56.1289 102.177 52.2833 101.372 48.6961C100.633 45.4004 99.3168 41.9468 96.8051 39.5825C95.5264 38.3459 93.9089 37.5175 92.1581 37.2027C89.9396 36.8332 87.695 37.1419 85.4834 37.4021C82.8347 37.7126 80.1946 38.011 77.5632 38.4568C75.3897 38.8262 73.2267 39.2547 71.0532 39.6137C67.5285 40.1931 63.0515 40.828 60.5919 43.723C58.2571 46.4793 58.0056 50.5278 57.9275 53.9797C57.8824 56.0213 57.8356 58.0942 58.2085 60.1098C58.599 62.1808 59.5472 64.1059 60.9509 65.6778C64.3577 69.5477 69.5979 70.8435 74.5467 71.1817C80.512 71.5894 86.5675 71.1262 92.4461 70.0768C92.9664 69.9849 92.7375 69.2095 92.231 69.298H92.224Z" fill="#1A1C3F"/>
<path id="Path_23" d="M104.566 38.2989C104.371 32.6002 104.731 26.896 105.639 21.2669C105.941 19.4056 106.312 17.5201 107.211 15.8619C107.52 15.2929 107.917 14.7309 108.507 14.4638C109.017 14.2331 109.599 14.2522 110.158 14.2782L129.315 15.1247C129.92 15.1524 130.547 15.1836 131.088 15.4542C131.981 15.9018 132.465 16.9269 132.541 17.9226C132.618 18.9182 132.352 19.9035 132.099 20.8714C130.694 26.2197 129.545 31.6259 128.652 37.0899C127.997 41.109 127.665 45.7629 130.475 48.7117C131.372 49.6519 132.517 50.3232 133.424 51.2546C134.331 52.1861 134.985 53.5495 134.555 54.7741C134.272 55.5755 133.584 56.1618 132.909 56.6718C127.049 61.1195 119.977 63.6825 112.628 64.0213C111.653 64.0629 110.586 64.0369 109.837 63.4124C109.225 62.9059 108.954 62.1046 108.722 61.3448C106.987 55.6664 105.799 49.8354 105.173 43.9312" fill="white"/>
<path id="Path_24" d="M101.849 41.39C101.654 35.6912 102.014 29.987 102.923 24.3579C103.223 22.4967 103.596 20.6112 104.495 18.9529C104.804 18.384 105.201 17.822 105.789 17.5548C106.299 17.3241 106.882 17.3449 107.442 17.3692L126.597 18.2175C127.202 18.2435 127.829 18.2747 128.372 18.547C129.265 18.9928 129.749 20.018 129.823 21.0136C129.898 22.0093 129.634 22.9945 129.381 23.9624C127.976 29.3096 126.828 34.7158 125.936 40.181C125.279 44.2018 124.947 48.854 127.759 51.8028C128.654 52.7429 129.801 53.4142 130.708 54.3457C131.615 55.2772 132.269 56.6406 131.837 57.8652C131.555 58.6666 130.868 59.2529 130.191 59.7629C124.33 64.2106 117.256 66.773 109.907 67.1106C108.932 67.154 107.867 67.1262 107.116 66.5035C106.505 65.9953 106.235 65.1939 106.002 64.4341C104.266 58.7565 103.076 52.9261 102.448 47.0222" fill="#DDEDE8"/>
<path id="Path_25" d="M104.97 38.2989C104.891 33.5424 105.181 28.7869 105.837 24.0752C106.136 21.9295 106.425 19.7179 107.142 17.6572C107.426 16.835 107.835 15.6242 108.626 15.142C109.482 14.6216 111.086 14.9685 112.033 15.0188L126.229 15.6537C127.355 15.704 128.484 15.7196 129.612 15.8064C130.907 15.9052 131.711 16.5852 131.844 17.9087C131.96 19.0587 131.528 20.2279 131.24 21.3241C130.925 22.5245 130.622 23.7277 130.333 24.9338C129.277 29.331 128.304 33.7803 127.69 38.2712C127.23 41.6224 127.017 45.4819 129.112 48.3457C130.292 49.9589 132.304 50.8036 133.367 52.4775C133.887 53.2859 134.089 54.2434 133.462 55.0499C132.836 55.8565 131.868 56.4376 131.048 56.9944C127.693 59.2928 123.887 60.9077 119.962 61.9398C117.705 62.5347 115.394 62.9008 113.064 63.0326C112.071 63.0864 110.798 63.2407 110.148 62.3214C109.497 61.4021 109.267 59.9606 108.949 58.8713C107.502 53.8912 106.68 48.8609 105.884 43.7265C105.757 42.906 104.384 43.0951 104.434 43.9225C104.741 48.9962 105.822 54.1358 107.11 59.0447C107.62 60.9857 107.948 63.716 110.031 64.6163C111.907 65.4281 114.463 64.8765 116.413 64.5902C120.892 63.9207 125.206 62.4143 129.128 60.1497C130.07 59.6102 130.984 59.0239 131.877 58.4151C132.77 57.8062 133.724 57.1904 134.451 56.4047C135.875 54.8643 135.695 52.8453 134.469 51.2373C133.15 49.5183 131.069 48.6736 130.05 46.6753C129.162 44.9181 128.93 42.9077 129.01 40.9685C129.098 38.6649 129.53 36.3804 129.936 34.1168C130.399 31.5056 130.923 28.9037 131.509 26.3111C131.782 25.1003 132.068 23.8919 132.366 22.6858C132.677 21.4386 133.091 20.1862 133.216 18.9044C133.41 16.9286 132.522 14.9009 130.413 14.5332C129.279 14.3337 128.075 14.3805 126.926 14.3302L122.822 14.1568L114.954 13.8098C113.471 13.7457 111.99 13.678 110.507 13.6156C109.386 13.567 108.311 13.5618 107.454 14.3927C105.775 16.0214 105.372 18.9026 105.025 21.0899C104.161 26.7805 103.871 32.5434 104.158 38.292C104.182 38.8124 104.973 38.8124 104.965 38.292L104.97 38.2989Z" fill="#1A1C3F"/>
<path id="Path_26" d="M131.622 150.9C131.615 150.909 131.608 150.916 131.6 150.923C131.069 151.439 130.303 151.631 129.592 151.426C128.881 151.221 128.335 150.65 128.162 149.931C127.324 146.432 127.121 142.789 126.947 139.185C126.104 122.995 125.262 106.812 124.42 90.6335C124.351 89.3204 124.266 87.9484 123.593 86.8174C122.365 84.7602 119.685 84.2155 117.313 83.8582L49.9728 73.8634C46.54 73.3534 42.8609 72.7255 40.3926 70.2849C37.6259 67.5443 36.7933 62.8834 33.2807 61.2164C31.7942 60.5122 30.0873 60.5001 28.4412 60.5105C21.475 60.5613 14.5141 60.8146 7.55833 61.2702C5.62945 61.3968 3.44386 61.6761 2.32157 63.2494C1.39876 64.5451 1.52365 66.2884 1.70232 67.8686C4.28425 90.6401 9.94444 112.956 18.5279 134.205C18.8991 135.123 19.3016 136.073 20.0474 136.724C20.8523 137.417 21.9399 137.674 22.9807 137.903C56.1757 145.162 92.7116 151.953 126.446 157.516C128.573 157.867 130.747 157.291 132.422 155.934L141.65 148.451" fill="white"/>
<path id="Path_27" d="M141.65 148.451C141.65 148.451 132.545 149.712 132.538 149.719C131.416 150.838 127.079 154.342 126.699 152.795C125.86 149.296 125.659 145.653 125.485 142.049L122.956 93.4974C122.888 92.1843 122.803 90.8122 122.129 89.6812C120.902 87.624 118.221 87.0793 115.851 86.722L48.5018 76.7273C45.0707 76.2173 41.3899 75.5894 38.9233 73.147C36.1479 70.4081 35.324 65.7472 31.8114 64.0803C30.3249 63.376 28.6163 63.3622 26.9719 63.3743C20.0058 63.4252 13.0448 63.6784 6.08906 64.1341C4.16018 64.2589 1.97458 64.54 0.852298 66.1132C-0.0722441 67.409 0.0543817 69.1505 0.233046 70.7325C2.81413 93.504 8.47435 115.82 17.0587 137.069C17.4299 137.986 17.8306 138.937 18.5782 139.587C19.3813 140.281 20.4706 140.538 21.5114 140.767C54.7047 148.026 91.2423 154.817 124.977 160.38C127.103 160.731 129.277 160.154 130.951 158.796L140.998 149.567" fill="#EAB642"/>
<path id="Path_28" d="M131.31 150.588C130.892 151.004 130.28 151.158 129.716 150.989C128.916 150.748 128.666 150.073 128.501 149.329C128.121 147.498 127.864 145.644 127.731 143.778C127.438 140.136 127.339 136.467 127.169 132.814C126.822 125.297 126.463 117.781 126.092 110.264L125.549 98.9006L125.284 93.3916C125.204 91.7142 125.239 89.9779 124.921 88.323C124.368 85.4436 121.997 84.0351 119.32 83.4315C115.931 82.6665 112.41 82.3213 108.978 81.7975C94.0609 79.5205 79.1353 77.306 64.2015 75.154L52.9127 73.513C49.8633 73.069 46.604 72.8192 43.7454 71.5894C41.0342 70.4168 39.624 68.2607 38.2293 65.7854C37.0325 63.664 35.7038 61.4489 33.3725 60.4498C31.8668 59.8062 30.2068 59.7559 28.5936 59.7715C26.7133 59.7837 24.8348 59.8184 22.9562 59.8652C19.2453 59.9577 15.5367 60.108 11.8305 60.3162C10.0803 60.4133 8.3179 60.4706 6.57463 60.6631C5.30664 60.8019 3.97273 61.0395 2.89381 61.7715C0.291909 63.5391 0.883408 66.8105 1.20778 69.4905C2.90686 83.5552 5.76715 97.4552 9.75936 111.048C11.7657 117.858 14.0548 124.577 16.6266 131.206C17.2181 132.729 17.7402 134.328 18.5069 135.782C19.1886 137.065 20.252 137.844 21.6292 138.255C23.2199 138.732 24.892 139.003 26.5139 139.353C28.1768 139.713 29.8408 140.07 31.506 140.423C45.4748 143.397 59.4626 146.273 73.4972 148.923C87.5805 151.586 101.688 154.139 115.821 156.495C119.291 157.074 122.76 157.685 126.248 158.208C128.654 158.585 131.107 157.913 132.985 156.363C135.334 154.472 137.7 152.59 139.972 150.611C140.656 150.016 141.322 149.397 142.024 148.824C142.557 148.394 141.799 147.645 141.27 148.071C139.188 149.756 136.945 151.39 134.834 153.09C133.898 153.842 132.971 154.609 132.026 155.345C131.217 155.991 130.279 156.455 129.275 156.706C127.648 157.1 126.049 156.717 124.435 156.444C110.665 154.126 96.9097 151.708 83.1694 149.19C69.3088 146.636 55.4695 143.961 41.6517 141.166C38.282 140.48 34.9145 139.781 31.5494 139.069C29.8333 138.705 28.1189 138.337 26.4063 137.966C24.859 137.631 23.2285 137.402 21.7229 136.89C20.0195 136.309 19.4783 134.809 18.8608 133.273C18.2155 131.663 17.5864 130.044 16.9736 128.417C15.7362 125.121 14.5659 121.799 13.4627 118.451C9.08711 105.211 5.82115 91.6298 3.69866 77.8478C3.17828 74.4011 2.67872 70.9406 2.33527 67.4697C2.19477 66.0577 2.09069 64.3717 3.18696 63.2876C4.17915 62.3075 5.74029 62.108 7.06379 62.0005C14.2572 61.4177 21.5304 61.2529 28.7463 61.2511C30.3733 61.2511 32.068 61.2997 33.4922 62.1878C34.5329 62.8314 35.284 63.8201 35.9206 64.8366C37.2632 66.958 38.2398 69.383 40.1374 71.0985C42.2415 73.0065 45.0324 73.801 47.7696 74.2919C51.2649 74.9198 54.7948 75.3777 58.3039 75.9103C72.937 78.1253 87.5648 80.3612 102.214 82.474L113.162 84.0542C114.834 84.2953 116.519 84.4965 118.181 84.7931C119.447 85.0186 120.772 85.3257 121.846 86.0681C123.197 87.0048 123.527 88.5173 123.636 90.0681C123.762 91.8616 123.841 93.6587 123.941 95.454L124.562 106.472L125.801 128.502C126.011 132.224 126.225 135.946 126.442 139.669C126.642 143.076 126.826 146.566 127.676 149.887C128.158 151.776 130.465 152.689 131.938 151.204C132.338 150.8 131.717 150.179 131.311 150.58L131.31 150.588Z" fill="#1A1C3F"/>
<g id="Group_4">
<path id="Path_29" d="M135.891 99.3013C136.585 100.493 137.332 101.667 138.104 102.805C138.356 103.178 138.958 102.836 138.711 102.45C137.971 101.287 137.188 100.13 136.366 99.0238C136.16 98.7463 135.711 98.9856 135.891 99.3013Z" fill="#34C6A0"/>
<path id="Path_30" d="M132.54 100.479C133.233 102.122 134.274 103.653 135.141 105.218C135.37 105.638 136.009 105.261 135.783 104.843C134.932 103.294 134.132 101.584 133.017 100.205C132.843 99.9934 132.439 100.222 132.546 100.479H132.54Z" fill="#34C6A0"/>
<path id="Path_31" d="M129.639 102.448C130.753 104.117 131.776 105.846 132.703 107.626C132.931 108.071 133.613 107.676 133.377 107.23C132.437 105.453 131.353 103.756 130.135 102.156C129.917 101.872 129.429 102.132 129.639 102.448Z" fill="#34C6A0"/>
<path id="Path_32" d="M126.654 104.774C127.296 106.194 128.021 107.575 128.828 108.909C129.083 109.333 129.752 108.944 129.492 108.522C128.678 107.197 127.905 105.841 127.162 104.476C126.979 104.129 126.503 104.436 126.654 104.774Z" fill="#34C6A0"/>
<path id="Path_33" d="M125.539 109.008C125.681 109.399 125.873 109.769 126.109 110.111C126.175 110.232 126.305 110.302 126.442 110.291C126.578 110.28 126.696 110.19 126.741 110.061C126.787 109.931 126.752 109.787 126.652 109.693C126.423 109.413 126.222 109.111 126.052 108.791C125.906 108.514 125.423 108.706 125.532 109.008H125.539Z" fill="#34C6A0"/>
</g>
<g id="Group_5">
<path id="Path_34" d="M77.8546 21.8254C77.6152 22.0405 77.5493 22.5592 77.7922 22.7968C77.9614 22.9704 78.2331 22.9914 78.427 22.8459C78.6208 22.7004 78.6766 22.4336 78.5571 22.2226C78.4713 22.083 78.3133 22.0046 78.1502 22.0207C77.9871 22.0367 77.8474 22.1444 77.7904 22.2981C77.7335 22.4518 77.7691 22.6245 77.8824 22.743L77.8963 22.7552L77.7852 22.5661C78.1027 22.1567 78.3056 22.0648 78.3871 22.2868C78.3993 22.3163 78.3993 22.318 78.3871 22.2868C78.3681 22.181 78.3871 22.3562 78.3871 22.2469C78.3871 22.2122 78.3871 22.1793 78.3871 22.1446C78.3871 22.1099 78.3715 21.9607 78.3871 22.044C78.384 21.9222 78.3096 21.8137 78.1972 21.7669C78.0848 21.72 77.9554 21.7436 77.8668 21.8271L77.8546 21.8254Z" fill="#1A1C3F"/>
<path id="Path_35" d="M77.1366 20.802C77.3259 20.542 77.6151 20.3729 77.9345 20.3354C78.0425 20.3055 78.134 20.2337 78.1887 20.136C78.2435 20.0382 78.2569 19.9227 78.2259 19.815C78.1612 19.592 77.9295 19.4623 77.7056 19.5236C77.2026 19.6476 76.7833 19.9935 76.5659 20.4638C76.4749 20.6194 76.5273 20.8194 76.683 20.9104C76.8387 21.0014 77.0387 20.949 77.1297 20.7933L77.1366 20.802Z" fill="#1A1C3F"/>
<path id="Path_36" d="M77.8789 26.6563C77.7176 27.0951 78.0836 27.4039 78.4652 27.5236C78.9806 27.6756 79.5346 27.6253 80.0142 27.3831C80.3785 27.1784 80.1252 26.6441 79.7367 26.7291C79.504 26.7973 79.2661 26.8466 79.0255 26.8766C78.9839 26.8766 78.408 26.8766 78.4219 26.8089C78.4485 26.7119 78.4214 26.6081 78.3507 26.5365C78.2801 26.465 78.1766 26.4365 78.0793 26.4619C77.9819 26.4874 77.9056 26.5628 77.8789 26.6597V26.6563Z" fill="#1A1C3F"/>
</g>
<path id="Path_37" d="M79.7697 13.704C78.7469 14.6704 77.593 15.4879 76.3421 16.1325C75.8027 16.3992 75.2864 16.7101 74.7984 17.0622C74.278 17.4577 73.8426 18.0162 73.1678 18.1221C72.8643 18.1689 72.7134 18.5436 72.7775 18.8159C73.0794 20.0301 72.729 20.8783 72.2138 21.9538C71.8461 22.7205 72.2138 23.56 72.4584 24.318C72.6318 24.8853 73.631 24.8228 73.5546 24.1689C73.3378 22.2868 71.1262 21.2513 69.709 22.7274C69.107 23.3708 68.9466 24.3112 69.3014 25.1177C69.768 26.2174 70.8018 26.3059 71.7298 26.8349L71.6119 25.9278C71.1037 26.4481 70.585 26.9477 70.0508 27.4455C69.8201 27.6658 69.1835 28.4672 68.8192 28.2608C68.5815 28.1255 68.4723 27.22 68.4011 26.9685C68.2524 26.4515 68.0537 25.9501 67.8079 25.4716C66.6735 23.2062 64.4914 20.5193 66.4324 18.0492C66.8284 17.5428 67.3523 17.1512 67.9502 16.9148C68.3786 16.7413 68.9129 16.7708 69.2945 16.4967C69.6223 16.2626 69.7316 15.8532 69.9397 15.5254C70.2988 14.9647 70.7973 14.5069 71.3864 14.1967C72.552 13.5583 73.9328 13.26 75.1938 12.8627L77.1019 12.2643C77.2979 12.2019 79.6205 11.4924 79.3343 12.0908C79.1609 12.469 79.3604 13.0102 79.8547 12.9842C80.4757 12.9512 81.6656 12.4308 82.042 13.0379C82.389 13.6034 81.3794 14.4013 81.0863 14.9269C80.866 15.3224 81.1366 15.926 81.6396 15.8896C82.0074 15.8619 82.5069 15.7803 82.6093 16.2365C82.6578 16.4568 82.5069 16.7378 82.3716 16.8922C81.9657 17.3571 81.2008 17.4594 80.637 17.5774C79.8252 17.7508 80.1721 18.9755 80.9839 18.8159C82.2537 18.5661 83.6708 18.0683 83.9033 16.6129C84.1357 15.1576 82.9371 14.4707 81.6483 14.6025L82.1999 15.5653C82.7203 14.5817 83.9674 13.5601 83.1851 12.3458C82.4028 11.1316 80.9857 11.7266 79.8634 11.789L80.3751 12.6823C80.5631 12.3027 80.5741 11.8596 80.4053 11.4711C80.2364 11.0826 79.9049 10.7883 79.4991 10.6667C78.9198 10.4829 78.3144 10.6425 77.7541 10.809C76.9579 11.0466 76.1687 11.312 75.3777 11.5618C74.0334 11.9885 72.6336 12.3441 71.3413 12.9165C70.7741 13.1603 70.2503 13.4949 69.7906 13.907C69.3222 14.3389 69.1245 14.9477 68.7099 15.3796C68.4185 15.6867 67.7975 15.7127 67.3604 15.9C65.7627 16.6103 64.667 18.1209 64.4879 19.8601C64.1687 22.743 66.5365 25.0639 67.3344 27.678C67.6188 28.6094 68.0091 29.6884 69.1939 29.4594C69.7524 29.3501 70.1427 28.972 70.5416 28.5921C71.1869 27.9792 71.8229 27.3553 72.4497 26.7205C72.5738 26.5928 72.6329 26.4155 72.6103 26.2389C72.5876 26.0622 72.4857 25.9056 72.3335 25.8133C71.5599 25.3796 70.1531 25.253 70.2815 24.0787C70.422 22.7795 72.3127 22.887 72.4584 24.1481L73.5546 23.9989C73.369 23.4108 73.1123 22.8454 73.3517 22.2417C73.5113 21.8358 73.7472 21.4906 73.8721 21.0622C74.0967 20.2224 74.0967 19.3383 73.8721 18.4985L73.4818 19.1923C74.0958 19.0952 74.5226 18.7534 74.9631 18.3371C75.532 17.8022 76.1599 17.3337 76.8348 16.9408C78.1152 16.2063 79.2681 15.269 80.2485 14.1654C80.3759 14.038 80.3759 13.8314 80.2485 13.704C80.1211 13.5766 79.9145 13.5766 79.7871 13.704H79.7697Z" fill="#34C6A0"/>
<path id="Path_38" d="M71.1782 24.5644C71.3297 24.5942 71.474 24.6531 71.6031 24.7378C71.7001 24.8 71.8233 24.8042 71.9242 24.7486C72.0251 24.6931 72.0874 24.5867 72.0867 24.4715C72.0859 24.3564 72.0222 24.2509 71.9206 24.1966C71.7098 24.0985 71.4829 24.0397 71.251 24.0232C70.9423 23.9971 70.8781 24.4932 71.1782 24.5626V24.5644Z" fill="#1A1C3F"/>
<path id="Path_39" d="M100.366 41.2686C102.18 37.2055 105.862 34.283 110.231 33.4386C110.403 33.3847 110.59 33.4003 110.751 33.4819C110.872 33.5871 110.954 33.7301 110.984 33.8878L111.456 35.4299L108.307 37.1645C109.492 36.4169 111.001 36.455 112.39 36.6337C112.564 36.6359 112.731 36.7019 112.859 36.8193C112.931 36.9216 112.974 37.0414 112.984 37.1662L113.221 38.4602C111.944 38.81 110.734 39.3698 109.641 40.1168C110.253 40.0838 110.854 39.8514 111.468 39.7369C112.082 39.6224 112.789 39.645 113.249 40.0699C113.709 40.4949 113.795 41.2304 113.769 41.8757C113.772 41.9742 113.749 42.0718 113.702 42.1584C113.606 42.2654 113.476 42.3359 113.334 42.3579C111.69 42.8175 110.344 43.9641 108.958 44.9598C107.572 45.9554 105.962 46.8678 104.262 46.7083" fill="white"/>
<path id="Path_40" d="M98.9023 42.0457C100.717 37.9835 104.399 35.0617 108.767 34.2174C108.939 34.1641 109.126 34.179 109.287 34.259C109.409 34.3645 109.492 34.5082 109.522 34.6667L109.993 36.2087L106.845 37.9433C108.03 37.1957 109.539 37.2339 110.928 37.4125C111.078 37.3948 111.228 37.4414 111.341 37.5406C111.454 37.6398 111.52 37.7824 111.522 37.9329L111.757 39.2269C110.478 39.5789 109.267 40.141 108.172 40.8904C108.798 40.8696 109.397 40.6302 110.012 40.5105C110.628 40.3908 111.334 40.4186 111.794 40.8453C112.254 41.272 112.339 42.0058 112.314 42.651C112.317 42.749 112.294 42.846 112.247 42.932C112.152 43.04 112.021 43.1107 111.879 43.1315C110.234 43.5929 108.888 44.7395 107.502 45.7334C106.117 46.7273 104.498 47.6328 102.795 47.4836" fill="#F7CEBF"/>
<path id="Path_41" d="M100.663 41.4455C101.72 39.335 103.302 37.5312 105.256 36.207C106.195 35.5507 107.216 35.0211 108.293 34.632C108.82 34.4523 109.355 34.2994 109.896 34.174C110.371 34.0561 110.222 34.0439 110.434 34.3701C110.646 34.6962 110.699 35.2374 110.81 35.6051L111.121 34.8627L107.971 36.5973L108.637 37.7369C109.409 37.2911 110.234 37.1714 111.117 37.1922C111.402 37.1922 111.985 37.1385 112.226 37.2998C112.498 37.4733 112.515 38.2868 112.573 38.632L113.036 37.8167C111.708 38.194 110.446 38.7744 109.296 39.5374C108.795 39.8705 108.927 40.8384 109.633 40.7759C110.613 40.6909 112.661 39.671 113.053 41.0691C113.091 41.2026 113.178 41.7213 113.088 41.8705C113.319 41.4854 112.625 41.8705 112.481 41.9208C111.943 42.1325 111.425 42.3926 110.933 42.6979C108.758 44.037 106.97 45.9103 104.259 45.952C103.265 45.9676 103.324 47.3397 104.259 47.4541C107.865 47.9034 110.389 44.1202 113.513 43.0101C114.779 42.5608 114.656 40.8731 113.992 39.9052C112.927 38.3544 111.076 39.3171 109.633 39.4455L109.969 40.6857C111.019 39.9807 112.172 39.444 113.388 39.0951C113.734 38.9895 113.938 38.6315 113.851 38.2798C113.744 37.6918 113.756 36.8176 113.319 36.3527C112.949 35.9589 112.316 35.9555 111.822 35.9121C110.481 35.7924 109.15 35.9121 107.966 36.5973C107.232 37.0223 107.888 38.1463 108.632 37.7369L111.778 36.0023C112.033 35.8504 112.156 35.5482 112.08 35.2616C111.877 34.6008 111.771 33.6346 111.28 33.1125C110.79 32.5904 110.047 32.795 109.426 32.939C105.138 33.9918 101.63 37.0636 100.019 41.1749C99.8702 41.5426 100.488 41.8011 100.663 41.4455Z" fill="#1A1C3F"/>
<path id="Path_42" d="M61.5615 48.684C63.181 54.251 66.3965 59.2213 70.8104 62.9805C72.8 64.6683 75.0931 66.1202 77.6656 66.5538C79.3013 66.8314 80.9873 66.6822 82.6074 66.3266C90.5207 64.592 96.5016 58.2954 101.96 52.311C102.481 51.7438 103.001 51.1558 103.256 50.4307C103.384 50.056 103.443 49.6345 103.709 49.3396C103.927 49.0951 104.252 48.9771 104.508 48.7742C105.123 48.285 105.244 47.409 105.239 46.625C105.217 44.1254 104.406 41.6966 102.92 39.6866C102.196 38.7152 100.729 37.8358 99.8997 38.7187C99.7262 38.9112 99.6048 39.1662 99.3966 39.3275C99.0497 39.6016 98.5519 39.5322 98.1078 39.5357C96.8433 39.5444 95.695 40.2295 94.6178 40.8956L79.1799 50.4359C78.8884 50.9025 79.924 51.1991 80.1478 50.6961C80.3715 50.1931 80.0073 49.638 79.6638 49.2078L75.225 43.6571" fill="white"/>
<path id="Path_43" d="M60.2971 47.9606C61.893 53.4958 64.736 60.6718 69.128 64.3977C71.1176 66.0838 73.4107 67.5373 75.9831 67.971C77.6188 68.2468 79.3049 68.0976 80.925 67.742C88.8382 66.0074 94.8191 59.7126 100.278 53.7265C100.798 53.161 101.718 53.0413 101.966 52.3162C102.094 51.9398 102.065 51.7854 102.33 51.4888C102.549 51.246 102.569 50.3943 102.826 50.1896C103.44 49.7022 103.562 48.8245 103.556 48.0404C103.536 45.5406 102.724 43.1115 101.237 41.102C100.514 40.1307 99.0463 39.2512 98.2172 40.1341C98.0437 40.3267 97.3638 39.6138 97.1556 39.7699C96.8087 40.0422 96.5399 40.063 96.0958 40.0665C94.8313 40.0752 94.0143 41.6467 92.9371 42.3111L77.4991 51.8514C77.2077 52.3162 78.2433 52.6128 78.4671 52.1115C78.6908 51.6102 78.3283 51.0534 77.9831 50.6233C76.5052 48.7742 73.2528 44.9095 71.7732 43.0587" fill="#EF6348"/>
<path id="Path_44" d="M61.284 48.7568C62.2832 52.3214 63.7558 55.6085 65.9675 58.5955C68.1253 61.5044 70.8469 64.2884 74.0975 65.9606C81.0966 69.5634 89.1036 65.2182 94.5068 60.6597C97.355 58.2572 99.9171 55.527 102.415 52.769C102.935 52.1896 103.456 51.5998 103.771 50.8713C103.967 50.4064 103.993 49.9294 104.424 49.612C104.77 49.3605 105.081 49.1974 105.338 48.8418C106.292 47.5235 105.934 45.4073 105.607 43.9364C105.213 42.1688 104.404 40.2937 103.178 38.9303C102.328 37.9884 100.718 37.1246 99.5684 38.0838C99.1191 38.4585 98.9942 38.7621 98.3733 38.8471C97.9309 38.9078 97.506 38.8696 97.0602 38.9737C96.146 39.1853 95.3082 39.6675 94.512 40.1428C92.5728 41.3154 90.6543 42.5227 88.7254 43.7126L82.1669 47.7577C81.0914 48.4203 79.7801 49.0118 78.8156 49.8253C78.5678 50.0145 78.4255 50.3109 78.4331 50.6226C78.4406 50.9343 78.5971 51.2235 78.8538 51.4004C79.3326 51.7594 80.1114 51.756 80.5485 51.3206C81.1834 50.6892 80.8677 49.7143 80.4358 49.0743C79.787 48.1133 78.9839 47.2286 78.2623 46.3197C77.421 45.2599 76.5849 44.1948 75.7211 43.1541C75.2111 42.5383 74.1062 43.3744 74.6023 44.0214C75.4314 45.0968 76.2849 46.1532 77.1383 47.2096L78.4115 48.7898C78.6352 49.0656 78.8659 49.3362 79.0793 49.6189C79.2111 49.7924 79.9223 50.4342 79.8512 50.625L79.5268 51.0465L88.5606 45.4611L92.9301 42.7586C94.29 41.9173 95.7263 40.7603 97.2943 40.3492C97.9708 40.1758 98.6942 40.3492 99.355 40.1237C99.9535 39.919 100.222 39.0691 100.823 39.05C102.118 39.0084 103.104 41.1419 103.541 42.0786C104.221 43.5402 104.571 45.134 104.566 46.7464C104.557 47.5235 104.404 48.0179 103.761 48.481C103.283 48.791 102.931 49.2598 102.765 49.8045C102.29 51.2234 101.189 52.2139 100.191 53.2945C99.1937 54.3752 98.2154 55.4108 97.1937 56.4359C95.1417 58.4931 92.9717 60.4567 90.5624 62.0907C88.2415 63.6657 85.7055 64.925 82.9787 65.6085C79.5875 66.4584 76.4132 66.089 73.4384 64.2208C67.9744 60.7689 63.7246 54.762 61.8304 48.6181C61.779 48.4771 61.628 48.3993 61.4834 48.4392C61.3388 48.4791 61.249 48.6233 61.2771 48.7707L61.284 48.7568Z" fill="#1A1C3F"/>
<path id="Path_45" d="M105.171 12.894C103.583 14.271 101.736 15.3176 99.7384 15.9729C99.5735 16.04 99.3955 16.0685 99.218 16.0561C99.05 16.0204 98.8916 15.9494 98.7531 15.848C97.3862 14.9807 95.9326 14.0162 95.355 12.5054C94.7479 10.9217 94.9769 9.99023 95.728 8.56439C95.9014 8.25043 95.8598 7.7075 95.9673 7.35017C96.2206 6.51236 96.682 5.76301 97.5059 5.39008C97.9864 5.17152 98.6178 5.14029 98.989 5.51844C99.7002 4.70838 101.136 4.71358 101.842 5.51844C102.633 4.79337 103.999 5.15764 104.684 5.98504C105.369 6.81245 105.551 7.93126 105.716 8.99284C105.848 9.84626 105.978 10.6997 106.108 11.5531C106.181 12.0336 106.252 12.5314 106.108 12.9963C105.964 13.4612 105.551 13.8809 105.067 13.8636" fill="white"/>
<path id="Path_46" d="M104.339 14.1862C102.75 15.5625 100.903 16.6091 98.9058 17.2652C98.7412 17.333 98.563 17.3615 98.3854 17.3484C98.2173 17.3133 98.0587 17.2423 97.9206 17.1403C96.5537 16.273 95.1018 15.3103 94.5225 13.7977C93.9171 12.2157 94.1443 11.2825 94.8954 9.85668C95.0689 9.54272 95.029 8.99979 95.1348 8.64246C95.3898 7.80465 95.8494 7.0553 96.6734 6.68063C97.1556 6.46207 97.7853 6.43084 98.1565 6.80899C98.8676 5.99893 100.306 6.00413 101.012 6.81939C101.803 6.0926 103.166 6.45686 103.851 7.28427C104.536 8.11167 104.718 9.23049 104.892 10.2921L105.282 12.8506C105.355 13.3311 105.428 13.8306 105.282 14.2955C105.136 14.7604 104.725 15.1784 104.241 15.1541" fill="#F7CEBF"/>
<g id="Group_6">
<path id="Path_47" d="M104.949 12.6771C103.589 13.7437 102.072 14.5933 100.451 15.1958C99.9986 15.3692 99.5199 15.5895 99.0377 15.3797C98.741 15.2513 98.4514 14.9807 98.1842 14.7951C97.5257 14.3731 96.9365 13.8518 96.4375 13.2496C95.3881 11.8862 95.4609 10.4586 96.1409 8.97725C96.4149 8.37707 96.3785 7.7266 96.6352 7.12469C96.892 6.52279 97.8356 5.29642 98.611 5.91047C98.8272 6.11598 99.1666 6.11598 99.3828 5.91047C99.6576 5.63036 100.034 5.47369 100.427 5.47631C100.819 5.47892 101.193 5.6406 101.464 5.92435C101.683 6.13075 102.025 6.13075 102.243 5.92435C102.937 5.38315 103.928 5.87578 104.375 6.4933C104.767 7.03449 104.93 7.70752 105.055 8.35452C105.213 9.16458 106.224 13.2114 105.081 13.3137C104.372 13.3814 104.365 14.4985 105.081 14.4308C106.295 14.3146 106.816 13.2808 106.75 12.1498C106.638 10.6823 106.413 9.22561 106.078 7.79251C105.825 6.66329 105.315 5.51325 104.248 4.94083C103.369 4.43234 102.268 4.51352 101.473 5.14551H102.252C101.772 4.66195 101.118 4.39001 100.437 4.39001C99.7551 4.39001 99.1017 4.66195 98.6214 5.14551H99.3933C97.846 3.93129 96.0611 5.47162 95.5407 6.9946C95.343 7.57395 95.343 8.12209 95.0776 8.68583C94.8448 9.13761 94.6671 9.61574 94.5485 10.1099C94.3779 11.082 94.5188 12.0831 94.9509 12.9703C95.3725 13.8948 96.0767 14.6234 96.8694 15.2426C97.5251 15.763 98.4878 16.6078 99.3655 16.5887C100.368 16.5661 101.603 15.7977 102.453 15.3189C103.52 14.7091 104.511 13.973 105.402 13.1264C105.705 12.8437 105.268 12.443 104.958 12.6824L104.949 12.6771Z" fill="#1A1C3F"/>
<path id="Path_48" d="M100.76 12.1307C100.519 11.3172 99.8357 10.8333 99.0586 10.5696V11.7092C100 11.5392 100.708 10.755 100.781 9.80117C100.84 8.71531 100.129 8.27125 99.1592 8.10473C97.4107 7.80291 94.1531 8.35971 94.6613 10.8645C94.7637 11.3692 95.5113 11.2287 95.5286 10.7465C95.5703 9.6173 97.2407 9.22008 98.0959 9.25824C98.389 9.27211 99.2702 9.25824 99.4835 9.50455C99.8565 9.95728 99.069 10.5037 98.7498 10.5713C98.082 10.7118 98.2572 11.7179 98.9076 11.7318C99.4679 11.7439 99.9345 11.8497 100.252 12.351C100.319 12.4824 100.476 12.5399 100.612 12.4832C100.749 12.4264 100.818 12.2744 100.772 12.1342L100.76 12.1307Z" fill="#1A1C3F"/>
<path id="Path_49" d="M98.0628 7.20448C97.8807 7.76129 97.8789 8.46554 98.4513 8.79684C98.9075 9.0605 99.2805 8.39268 98.859 8.103C98.6213 7.92954 98.63 7.62946 98.6682 7.37447C98.7161 7.2073 98.6194 7.03295 98.4522 6.98506C98.285 6.93716 98.1107 7.03384 98.0628 7.20101V7.20448Z" fill="#1A1C3F"/>
<path id="Path_50" d="M100.496 7.20621C100.274 8.00933 100.304 8.9755 100.777 9.69536C101.251 10.4152 102.526 10.4933 103.282 10.2418C103.976 10.0093 104.618 9.201 104.583 8.43604C104.548 7.67108 103.704 7.30855 103.086 7.7422C102.926 7.84398 102.85 8.03848 102.9 8.22196C102.95 8.40545 103.113 8.53513 103.303 8.54185C103.386 8.55573 103.47 8.55573 103.553 8.54185C103.662 8.51237 103.666 8.52798 103.553 8.58522C103.487 8.71254 103.407 8.83235 103.315 8.94255C103.031 9.28947 102.568 9.3311 102.149 9.30681C101.175 9.24784 101.022 8.07004 101.119 7.29121C101.166 6.92694 100.585 6.86796 100.491 7.20621H100.496Z" fill="#1A1C3F"/>
</g>
<g id="Group_7">
<path id="Path_51" d="M71.2251 36.8106L71.4888 38.8575C71.4929 38.9764 71.5643 39.0825 71.6728 39.1313C71.7813 39.18 71.9081 39.1629 71.9998 39.0871C72.0915 39.0113 72.1321 38.8899 72.1045 38.7742L71.7802 36.736C71.7316 36.4273 71.1869 36.4967 71.2286 36.8106H71.2251Z" fill="#EAB642"/>
<path id="Path_52" d="M74.6803 35.4108C74.8621 36.2629 74.9947 37.1246 75.0775 37.9919C75.1087 38.4637 75.8546 38.4568 75.8078 37.9919C75.739 37.0588 75.5423 36.1395 75.2232 35.2599C75.1722 35.122 75.024 35.0463 74.8824 35.0857C74.7407 35.125 74.6529 35.2664 74.6803 35.4108Z" fill="#EAB642"/>
<path id="Path_53" d="M78.7671 34.5921C78.9302 35.5635 78.9822 36.5574 79.1574 37.5218C79.2303 37.9294 79.8304 37.808 79.8512 37.4281C79.8963 36.455 79.6205 35.357 79.3118 34.4429C79.2651 34.3003 79.1147 34.2196 78.9701 34.2594C78.8254 34.2993 78.7376 34.4457 78.7706 34.5921H78.7671Z" fill="#EAB642"/>
<path id="Path_54" d="M83.4455 34.6042C83.4844 34.5661 83.5256 34.5302 83.5686 34.4967L83.0378 34.2764C83.0673 35.0032 83.2581 35.7439 83.3848 36.4568C83.4767 36.9546 84.2625 36.7482 84.1497 36.2452C83.9988 35.5669 83.8913 34.8436 83.6432 34.1949C83.6027 34.0631 83.481 33.9732 83.3431 33.9732C83.2053 33.9732 83.0836 34.0631 83.043 34.1949L83.0066 34.2712C82.9404 34.3904 82.9713 34.5402 83.0793 34.6235C83.1874 34.7068 83.34 34.6986 83.4385 34.6042H83.4455Z" fill="#EAB642"/>
</g>
<g id="Group_8">
<path id="Path_55" d="M57.1191 9.55486C57.754 10.2157 58.3836 10.8818 59.0411 11.5202C59.1848 11.6639 59.4177 11.6639 59.5614 11.5202C59.7051 11.3765 59.7051 11.1435 59.5614 10.9998C58.9283 10.3372 58.2674 9.7023 57.6117 9.06223C57.4757 8.9262 57.2552 8.9262 57.1191 9.06223C56.9831 9.19827 56.9831 9.41882 57.1191 9.55486Z" fill="#34C6A0"/>
<path id="Path_56" d="M64.4462 4.06485L64.4601 4.00414L64.1756 4.21923C64.0021 4.04577 63.9709 4.08914 64.0802 4.33372C64.1149 4.47595 64.1496 4.61993 64.1808 4.7639C64.2294 4.98072 64.2762 5.19755 64.3196 5.41437C64.4219 5.92261 64.5104 6.43085 64.5884 6.94256C64.6578 7.40049 65.3777 7.21315 65.2909 6.74828C65.1765 6.1325 65.0464 5.52018 64.8955 4.91134C64.8035 4.54187 64.7654 3.95037 64.4687 3.67977C64.3667 3.58152 64.2123 3.56178 64.0889 3.6312L64.0264 3.6711C63.9138 3.74098 63.8591 3.87553 63.8911 4.00414L63.9085 4.06312C63.9442 4.17979 64.0519 4.25946 64.1739 4.25946C64.2959 4.25946 64.4036 4.17979 64.4393 4.06312L64.4462 4.06485Z" fill="#34C6A0"/>
<path id="Path_57" d="M71.7972 1.32593L71.9343 4.59738C71.9551 5.09521 72.7443 5.08827 72.7027 4.59738L72.4234 1.32593C72.3905 0.928703 71.7799 0.918296 71.7972 1.32593Z" fill="#34C6A0"/>
<path id="Path_58" d="M81.5094 0.377093C80.8849 1.6208 80.5328 3.06919 80.0783 4.38228C79.9048 4.88705 80.7288 5.12122 80.8814 4.60431C81.2665 3.29642 81.8129 1.93823 82.0228 0.593918C82.0679 0.305974 81.6655 0.0735377 81.5024 0.377093H81.5094Z" fill="#34C6A0"/>
<path id="Path_59" d="M89.6117 4.724C89.3142 5.43643 88.9042 6.09646 88.3974 6.67889C88.2961 6.78899 88.2656 6.94684 88.3186 7.08676C88.3716 7.22668 88.499 7.32472 88.6478 7.34009C88.7967 7.35545 88.9414 7.28552 89.0219 7.15938C89.5197 6.46239 89.9021 5.68988 90.1546 4.87144C90.2656 4.51584 89.747 4.39789 89.6117 4.72226V4.724Z" fill="#34C6A0"/>
<path id="Path_60" d="M56.0159 28.0891C53.2377 29.2511 50.3863 30.2298 47.48 31.0188C46.1287 31.3831 44.7688 31.7126 43.3933 31.9763C42.3664 32.1688 41.4644 32.4047 41.0342 33.4559C40.5867 34.5504 40.7046 35.9069 40.6769 37.0587C40.641 38.5886 40.6283 40.1179 40.6387 41.6467C40.6543 44.8193 40.7497 47.9901 40.8434 51.161C40.8472 51.4928 41.1152 51.7609 41.447 51.7646C45.2713 51.5992 49.0955 51.4321 52.9197 51.2633C53.1764 51.2529 53.4938 51.0742 53.5389 50.7932C53.9701 48.1621 54.1796 45.4994 54.1651 42.8332C54.1651 41.9659 54.1738 41.0552 53.2718 40.6597C52.2952 40.233 50.9145 40.6129 49.8997 40.7065C47.2632 40.9494 44.6306 41.2275 42.0021 41.5409C40.7705 41.6889 39.5407 41.8439 38.3126 42.0058C37.2528 42.1463 35.7975 42.0925 34.9961 42.9303C34.3022 43.6623 34.4046 44.6649 34.4757 45.5912C34.5746 46.9285 34.7168 48.2607 34.8417 49.5946C35.088 52.2127 35.4494 54.8146 35.9258 57.4003C36.0889 58.2884 36.1218 59.52 37.003 60.023C37.8842 60.5261 39.336 60.4376 40.3178 60.4862C41.5785 60.5484 42.8419 60.535 44.101 60.4463C44.7046 60.4047 45.3048 60.3439 45.9032 60.2728C46.1877 60.2364 46.4704 60.1965 46.7532 60.1566C47.3846 60.0647 47.2302 60.2034 47.2857 60.7949C47.4175 62.2104 47.4123 63.7264 47.6968 65.1176C47.9466 66.3318 49.0203 66.1791 49.9813 65.9467C50.6664 65.7732 51.2996 65.5339 52.0108 65.4957H52.2935C52.6485 65.5396 52.6716 65.4922 52.3629 65.3535C52.5363 65.5859 52.5693 66.0577 52.6508 66.3231C53.1036 67.8305 53.617 69.3205 54.0385 70.8331C54.3559 71.9692 56.1773 71.4593 55.7991 70.3491C55.4366 69.2823 55.1348 68.2017 54.8 67.128C54.5207 66.2364 54.3542 65.0083 53.7696 64.2641C53.2493 63.6085 52.382 63.7004 51.6534 63.9033C51.1938 64.0334 50.7428 64.1965 50.2831 64.3301C49.9032 64.4393 49.1608 64.7602 48.7688 64.6249L49.2111 64.9719C48.9943 64.6475 49.055 63.9311 49.0203 63.553L48.8746 62.0057C48.8017 61.2217 48.8573 60.2711 48.5971 59.5235C48.3924 58.9337 47.8529 58.6354 47.2493 58.6302C46.3195 58.6302 45.3603 58.8799 44.4306 58.9545C42.5694 59.1046 40.6987 59.0907 38.8399 58.9129C38.5503 58.8834 37.9171 58.9129 37.7194 58.6822C37.4904 58.4081 37.4783 57.7056 37.4106 57.3466C37.2256 56.3613 37.0573 55.3726 36.9059 54.3804C36.6127 52.4723 36.3612 50.5313 36.2363 48.599C36.1791 47.7109 36.153 46.8193 36.1322 45.9294C36.0982 45.514 36.0918 45.0968 36.1131 44.6805C36.1773 44.1272 36.4601 44.0456 36.9648 43.9312C38.7914 43.5235 40.7012 43.3414 42.5537 43.0795C44.4965 42.8066 46.4415 42.5539 48.3889 42.3215C49.5112 42.1862 50.6335 42.0543 51.7558 41.9364C52.0836 41.9034 52.5832 41.7629 52.7688 42.0318C52.9544 42.3006 52.826 43.1835 52.8278 43.5166C52.8332 45.8393 52.6592 48.159 52.3074 50.455L52.9249 49.9849C49.0995 50.1734 45.2753 50.3654 41.4522 50.5608L42.0559 51.1644C41.9501 48.3336 41.8443 45.5027 41.7922 42.6649C41.7662 41.1922 41.7541 39.7161 41.7662 38.2469C41.7749 36.9667 41.6413 35.5426 41.9084 34.285C42.2016 32.8974 43.7558 32.8852 44.911 32.6077C46.2189 32.2931 47.5164 31.9404 48.8035 31.5496C51.3573 30.7681 53.8644 29.8415 56.3126 28.7742C56.7011 28.6008 56.4184 27.9173 56.0212 28.0804L56.0159 28.0891Z" fill="#34C6A0"/>
<path id="Path_61" d="M139.093 32.8523C142.389 32.2278 145.702 31.7387 149.036 31.4074C150.609 31.2495 152.186 31.1211 153.762 31.0344C154.045 30.9954 154.33 30.9866 154.614 31.0084C155.252 31.1177 155.344 31.5166 155.45 32.0492C155.608 32.8488 155.683 33.6727 155.782 34.4776C156.548 40.8337 156.706 47.2485 156.252 53.6345L157.015 53.0534C155.226 52.6042 153.466 52.9528 151.712 53.4004C149.787 53.886 147.884 54.2677 145.889 54.2902C145.084 54.2989 143.731 54.4394 143.081 53.9294C142.682 53.6154 142.56 52.9459 142.387 52.4741C142.213 52.0023 142.04 51.5096 141.867 51.0257C141.15 49.0413 140.456 47.0482 139.785 45.0465L139.296 45.9138L157.23 42.6337L159.431 42.2313C159.967 42.1341 161.272 41.6658 161.721 41.9572C162.12 42.2157 162.132 43.05 162.198 43.475C162.323 44.2972 162.438 45.1211 162.545 45.9468C162.902 48.8948 163.109 51.8589 163.166 54.8279C163.196 56.3382 163.186 57.8502 163.136 59.3639C163.114 60.0369 163.084 60.7088 163.046 61.3795C163.006 62.0872 163.102 63.0673 162.463 63.5322C161.991 63.8791 161.334 63.9571 160.775 64.0681C160.009 64.2225 159.24 64.363 158.47 64.4983C157.044 64.7533 155.615 65.01 154.184 65.239C151.235 65.7073 148.238 65.9086 145.268 66.2295C143.771 66.4055 142.265 66.4958 140.758 66.5C139.464 66.5 138.092 66.363 136.81 66.5608C135.627 66.7446 134.684 67.4177 134.469 68.6423C134.212 70.1115 134.604 71.8235 134.725 73.3014C135.004 76.7301 135.284 80.16 135.567 83.5911C135.608 84.1114 136.002 84.3803 136.5 84.3022C140.968 83.6192 145.375 82.588 149.683 81.2181C150.723 80.8874 151.754 80.537 152.775 80.167C153.615 79.8634 154.697 79.6119 155.377 79.0048C156.057 78.3977 156.099 77.5841 156.12 76.7325C156.151 75.4801 156.166 74.2271 156.165 72.9736C156.165 70.6365 156.119 68.3011 156.028 65.9675C155.985 64.8863 155.931 63.8056 155.865 62.7256C155.814 61.886 155.808 60.958 155.4 60.1948C154.411 58.3474 151.965 59.3379 150.37 59.631L147.214 60.2139C146.194 60.4012 145.029 60.4775 144.056 60.8505C143.083 61.2234 142.814 62.0126 142.841 62.9753C142.873 64.2086 142.966 65.4454 143.036 66.6787C143.185 69.3708 143.338 72.0635 143.495 74.7567C143.518 75.1453 143.823 75.5356 144.25 75.5113L147.433 75.3274C147.924 75.2979 148.3 75.0967 148.368 75.6414C148.436 76.1861 148.403 76.7914 148.416 77.3552C148.477 79.698 148.501 82.0426 148.491 84.389C148.47 89.0204 148.313 93.6489 148.019 98.2745C147.96 99.2163 149.424 99.2111 149.485 98.2745C149.821 93.0244 149.987 87.7668 149.981 82.5017C149.981 81.2447 149.968 79.9866 149.943 78.7272C149.922 77.5338 150.08 76.1462 149.794 74.9822C149.58 74.1149 148.913 73.7784 148.07 73.7871C146.8 73.7992 145.518 73.9311 144.253 74.0039L145.006 74.7567L144.677 68.8591C144.567 66.9164 144.292 64.9112 144.33 62.9615C144.33 62.4411 144.387 62.2503 144.895 62.115C145.294 62.0109 145.71 61.9537 146.109 61.8756L149.089 61.2962C150.028 61.1141 150.965 60.9303 151.905 60.7516C152.355 60.6409 152.813 60.5575 153.273 60.5018C153.913 60.4602 154.141 60.6475 154.3 61.2286C154.514 62.0283 154.474 62.9146 154.52 63.7351C154.576 64.7585 154.624 65.7825 154.664 66.8071C154.737 68.7429 154.777 70.6793 154.784 72.6162C154.784 73.5865 154.78 74.555 154.77 75.5217C154.77 75.9773 154.763 76.4329 154.748 76.8886C154.729 77.5911 154.63 77.9571 153.943 78.2572C152.208 79.0135 150.331 79.5512 148.521 80.0993C144.452 81.3268 140.299 82.2544 136.096 82.8747L137.031 83.5859C136.781 80.3849 136.53 77.184 136.279 73.9831C136.16 72.4636 135.889 70.8747 135.933 69.3517C135.95 68.6579 136.243 68.389 136.921 68.311C137.632 68.2312 138.363 68.2607 139.077 68.2416C140.638 68.1982 142.2 68.0508 143.761 67.9849C145.266 67.9207 146.763 67.8687 148.262 67.7021C151.32 67.3552 154.406 66.9649 157.424 66.3613C158.911 66.0647 160.404 65.7681 161.87 65.383C162.956 65.0985 163.967 64.5521 164.314 63.4125C164.723 62.0629 164.588 60.4185 164.625 59.0205C164.665 57.4524 164.665 55.8837 164.625 54.3145C164.538 51.2336 164.292 48.1592 163.887 45.1038C163.728 43.9052 163.736 42.3874 163.107 41.3189C162.446 40.2018 161.332 40.4203 160.243 40.625L138.911 44.5591C138.537 44.6644 138.318 45.0516 138.42 45.4264C139.148 47.59 139.904 49.7432 140.685 51.886C141.015 52.7915 141.256 53.9051 141.821 54.6961C142.342 55.4125 143.155 55.5027 143.974 55.5495C146.001 55.6687 148.035 55.5188 150.023 55.1037C152.212 54.6406 154.432 53.6762 156.694 54.2278C156.875 54.2738 157.067 54.2347 157.216 54.1215C157.365 54.0084 157.453 53.8335 157.457 53.6467C157.921 46.5338 157.623 39.3917 156.567 32.3423C156.385 31.1454 156.012 30.044 154.621 29.9763C152.911 29.8931 151.079 30.2313 149.379 30.4204C145.86 30.8159 142.364 31.3709 138.89 32.0856C138.387 32.1879 138.602 32.9529 139.1 32.8523H139.093Z" fill="#34C6A0"/>
</g>
<g id="Group_9">
<path id="Path_62" d="M21.6415 114.632C23.0691 114.934 24.4967 115.239 25.9347 115.489C27.1021 115.693 28.488 116.151 29.6797 115.978C32.1948 115.612 32.0873 112.658 31.7092 110.79C31.6584 110.612 31.5287 110.467 31.3573 110.397C31.186 110.327 30.992 110.34 30.8315 110.432C28.1099 112.318 28.6771 116.755 31.7196 118.016C34.4689 119.156 37.6172 116.096 36.115 113.365C35.9416 113.045 35.383 112.92 35.135 113.239C34.2434 114.384 33.3171 116.094 34.7395 117.256C35.2029 117.648 35.8542 117.729 36.3995 117.463C36.9199 117.218 37.1298 116.835 37.7699 116.868C38.341 116.926 38.9085 117.016 39.4698 117.137C43.8063 117.83 48.1428 118.431 52.5053 118.81C53.1436 118.866 53.1297 117.889 52.5053 117.822C49.0257 117.45 45.5547 117.006 42.0977 116.444C41.2651 116.307 40.4325 116.167 39.6033 116.011C38.9095 115.879 38.1532 115.641 37.4351 115.664C37.193 115.667 36.9537 115.717 36.7308 115.811C36.4654 115.926 36.1619 116.311 35.8913 116.356C34.4776 116.588 35.7352 114.484 36.0162 114.127L35.0361 114C36.0283 115.829 33.6484 117.643 31.9832 116.79C30.0509 115.811 29.5825 112.765 31.4316 111.47L30.5643 111.112C30.7621 112.061 31.024 113.194 30.5244 114.094C29.9208 115.185 28.7499 114.862 27.7248 114.71C25.7352 114.41 23.7352 114.155 21.7439 113.933C21.3432 113.889 21.2565 114.555 21.6485 114.637L21.6415 114.632Z" fill="white"/>
<path id="Path_63" d="M23.364 120.934C26.4551 121.749 29.5739 122.434 32.7066 123.071C33.6016 123.244 34.9719 123.749 35.73 122.965C35.9864 122.718 36.1161 122.367 36.0823 122.013C36.0485 121.659 35.8549 121.339 35.5565 121.145C35.403 121.052 35.2105 121.052 35.0569 121.145C34.6669 121.424 34.4412 121.879 34.4547 122.358C34.4683 122.838 34.7194 123.279 35.1246 123.535C36.4047 124.358 37.7143 123.254 38.5192 122.313L37.6016 121.933C37.867 124.042 39.9554 124.491 41.7646 124.535C43.9641 124.59 46.2867 124.429 48.2069 125.698C48.7395 126.045 49.2286 125.199 48.7048 124.845C47.3171 123.905 45.6692 123.631 44.0213 123.527C42.5955 123.444 38.9459 123.96 38.684 121.931C38.6302 121.523 38.1029 121.154 37.7664 121.551C37.4299 121.948 37.0916 122.385 36.6302 122.609C36.3929 122.731 36.1214 122.768 35.8601 122.715C35.442 122.566 35.3397 122.177 35.6623 121.921L35.0639 121.999C35.3501 122.172 34.6528 122.436 34.5765 122.448C34.3132 122.454 34.0506 122.42 33.7976 122.347C33.3466 122.269 32.8991 122.174 32.4498 122.096C31.4391 121.904 30.429 121.709 29.4195 121.511C27.4542 121.131 25.4906 120.751 23.5218 120.391C23.1749 120.326 23.0171 120.838 23.3727 120.932L23.364 120.934Z" fill="white"/>
<path id="Path_64" d="M24.3908 127.664C27.4819 128.479 30.599 129.162 33.7316 129.799C34.6284 129.973 35.9988 130.479 36.7568 129.693C37.0132 129.446 37.1429 129.096 37.1091 128.742C37.0754 128.387 36.8818 128.068 36.5833 127.874C36.4298 127.781 36.2373 127.781 36.0838 127.874C35.6945 128.154 35.4694 128.608 35.483 129.088C35.4966 129.567 35.747 130.008 36.1514 130.266C37.4333 131.086 38.7429 129.983 39.5478 129.051L38.6284 128.672C38.8938 130.779 40.9823 131.228 42.7915 131.273C44.9927 131.329 47.3153 131.169 49.2338 132.437C49.7663 132.784 50.2572 131.938 49.7316 131.586C48.3439 130.646 46.6978 130.363 45.0482 130.266C43.6241 130.182 39.9727 130.699 39.7108 128.672C39.6588 128.264 39.1315 127.893 38.7932 128.29C38.455 128.687 38.1202 129.124 37.657 129.348C37.4197 129.469 37.1482 129.507 36.8869 129.454C36.4706 129.306 36.3665 128.916 36.6909 128.659L36.0907 128.738C36.3769 128.911 35.6796 129.175 35.605 129.187C35.3414 129.193 35.0783 129.159 34.8244 129.088C34.3752 129.008 33.9259 128.914 33.4767 128.835C32.4671 128.642 31.4576 128.447 30.4481 128.25C28.4827 127.87 26.5174 127.492 24.5504 127.13C24.2035 127.065 24.0456 127.579 24.4012 127.672L24.3908 127.664Z" fill="white"/>
</g>
</g>
</svg>
