<svg width="24" height="24" viewBox="0 0 24 24" fill="none" xmlns="http://www.w3.org/2000/svg">
<path d="M10.614 17.796C10.5418 17.9676 10.4206 18.1142 10.2655 18.2172C10.1103 18.3202 9.92826 18.3752 9.74203 18.3752C9.55581 18.3752 9.37373 18.3202 9.21862 18.2172C9.0635 18.1142 8.94224 17.9676 8.87004 17.796L7.99304 15.786C7.22483 14.0096 5.81917 12.5854 4.05304 11.794L1.63704 10.722C0.869035 10.381 0.869035 9.26398 1.63704 8.92198L3.97704 7.88398C5.78871 7.07194 7.21948 5.59534 7.97404 3.75898L8.86404 1.61698C8.9342 1.44133 9.0554 1.29076 9.212 1.18468C9.3686 1.07861 9.5534 1.02191 9.74254 1.02191C9.93168 1.02191 10.1165 1.07861 10.2731 1.18468C10.4297 1.29076 10.5509 1.44133 10.621 1.61698L11.511 3.75898C12.2656 5.59534 13.6964 7.07194 15.508 7.88398L17.848 8.92298C18.616 9.26298 18.616 10.381 17.848 10.722L15.433 11.794C13.6667 12.585 12.2607 14.0088 11.492 15.785L10.614 17.796ZM4.54004 9.82198C6.82504 10.837 8.68403 12.505 9.74203 14.8C10.801 12.505 12.659 10.837 14.945 9.82198C12.632 8.79598 10.768 7.04598 9.74203 4.71098C8.71703 7.04598 6.85204 8.79598 4.54004 9.82198ZM19.4 22.69L19.647 22.124C20.0802 21.1228 20.8726 20.3201 21.868 19.874L22.628 19.535C22.7201 19.4926 22.7981 19.4247 22.8528 19.3394C22.9075 19.2541 22.9365 19.1548 22.9365 19.0535C22.9365 18.9521 22.9075 18.8529 22.8528 18.7675C22.7981 18.6822 22.7201 18.6143 22.628 18.572L21.911 18.253C20.8898 17.7949 20.0833 16.9623 19.658 15.927L19.404 15.316C19.3665 15.2217 19.3015 15.1409 19.2176 15.084C19.1336 15.0271 19.0345 14.9966 18.933 14.9966C18.8316 14.9966 18.7325 15.0271 18.6485 15.084C18.5645 15.1409 18.4996 15.2217 18.462 15.316L18.208 15.926C17.783 16.9617 16.9765 17.7947 15.955 18.253L15.237 18.573C15.1452 18.6155 15.0675 18.6833 15.013 18.7686C14.9586 18.8538 14.9296 18.9528 14.9296 19.054C14.9296 19.1551 14.9586 19.2542 15.013 19.3394C15.0675 19.4246 15.1452 19.4925 15.237 19.535L15.997 19.873C16.9931 20.3191 17.7858 21.1222 18.219 22.124L18.466 22.69C18.646 23.104 19.22 23.104 19.4 22.69ZM18.374 19.047L18.936 18.488L19.486 19.047L18.936 19.59L18.374 19.047Z" fill="white"/>
</svg>
