<svg width="279" height="61" viewBox="0 0 279 61" fill="none" xmlns="http://www.w3.org/2000/svg">
<rect x="0.55" y="0.55" width="277.9" height="59.9" rx="10.45" fill="#FFDA90" fill-opacity="0.23" stroke="#C8C8C8" stroke-width="0.9" stroke-dasharray="2 2"/>
<path d="M71.87 20.9325C71.825 21.0075 71.775 21.065 71.72 21.105C71.67 21.14 71.6075 21.1575 71.5325 21.1575C71.4475 21.1575 71.3475 21.115 71.2325 21.03C71.1175 20.945 70.9725 20.8525 70.7975 20.7525C70.6275 20.6475 70.42 20.5525 70.175 20.4675C69.935 20.3825 69.6425 20.34 69.2975 20.34C68.9725 20.34 68.685 20.385 68.435 20.475C68.19 20.56 67.9825 20.6775 67.8125 20.8275C67.6475 20.9775 67.5225 21.155 67.4375 21.36C67.3525 21.56 67.31 21.7775 67.31 22.0125C67.31 22.3125 67.3825 22.5625 67.5275 22.7625C67.6775 22.9575 67.8725 23.125 68.1125 23.265C68.3575 23.405 68.6325 23.5275 68.9375 23.6325C69.2475 23.7325 69.5625 23.8375 69.8825 23.9475C70.2075 24.0575 70.5225 24.1825 70.8275 24.3225C71.1375 24.4575 71.4125 24.63 71.6525 24.84C71.8975 25.05 72.0925 25.3075 72.2375 25.6125C72.3875 25.9175 72.4625 26.2925 72.4625 26.7375C72.4625 27.2075 72.3825 27.65 72.2225 28.065C72.0625 28.475 71.8275 28.8325 71.5175 29.1375C71.2125 29.4425 70.835 29.6825 70.385 29.8575C69.94 30.0325 69.4325 30.12 68.8625 30.12C68.1625 30.12 67.5275 29.995 66.9575 29.745C66.3875 29.49 65.9 29.1475 65.495 28.7175L65.915 28.0275C65.955 27.9725 66.0025 27.9275 66.0575 27.8925C66.1175 27.8525 66.1825 27.8325 66.2525 27.8325C66.3175 27.8325 66.39 27.86 66.47 27.915C66.555 27.965 66.65 28.03 66.755 28.11C66.86 28.19 66.98 28.2775 67.115 28.3725C67.25 28.4675 67.4025 28.555 67.5725 28.635C67.7475 28.715 67.945 28.7825 68.165 28.8375C68.385 28.8875 68.6325 28.9125 68.9075 28.9125C69.2525 28.9125 69.56 28.865 69.83 28.77C70.1 28.675 70.3275 28.5425 70.5125 28.3725C70.7025 28.1975 70.8475 27.99 70.9475 27.75C71.0475 27.51 71.0975 27.2425 71.0975 26.9475C71.0975 26.6225 71.0225 26.3575 70.8725 26.1525C70.7275 25.9425 70.535 25.7675 70.295 25.6275C70.055 25.4875 69.78 25.37 69.47 25.275C69.16 25.175 68.845 25.075 68.525 24.975C68.205 24.87 67.89 24.75 67.58 24.615C67.27 24.48 66.995 24.305 66.755 24.09C66.515 23.875 66.32 23.6075 66.17 23.2875C66.025 22.9625 65.9525 22.5625 65.9525 22.0875C65.9525 21.7075 66.025 21.34 66.17 20.985C66.32 20.63 66.535 20.315 66.815 20.04C67.1 19.765 67.4475 19.545 67.8575 19.38C68.2725 19.215 68.7475 19.1325 69.2825 19.1325C69.8825 19.1325 70.4275 19.2275 70.9175 19.4175C71.4125 19.6075 71.8475 19.8825 72.2225 20.2425L71.87 20.9325ZM79.2431 25.3725C79.2431 25.0625 79.1981 24.78 79.1081 24.525C79.0231 24.265 78.8956 24.0425 78.7256 23.8575C78.5606 23.6675 78.3581 23.5225 78.1181 23.4225C77.8781 23.3175 77.6056 23.265 77.3006 23.265C76.6606 23.265 76.1531 23.4525 75.7781 23.8275C75.4081 24.1975 75.1781 24.7125 75.0881 25.3725H79.2431ZM80.3231 28.935C80.1581 29.135 79.9606 29.31 79.7306 29.46C79.5006 29.605 79.2531 29.725 78.9881 29.82C78.7281 29.915 78.4581 29.985 78.1781 30.03C77.8981 30.08 77.6206 30.105 77.3456 30.105C76.8206 30.105 76.3356 30.0175 75.8906 29.8425C75.4506 29.6625 75.0681 29.4025 74.7431 29.0625C74.4231 28.7175 74.1731 28.2925 73.9931 27.7875C73.8131 27.2825 73.7231 26.7025 73.7231 26.0475C73.7231 25.5175 73.8031 25.0225 73.9631 24.5625C74.1281 24.1025 74.3631 23.705 74.6681 23.37C74.9731 23.03 75.3456 22.765 75.7856 22.575C76.2256 22.38 76.7206 22.2825 77.2706 22.2825C77.7256 22.2825 78.1456 22.36 78.5306 22.515C78.9206 22.665 79.2556 22.885 79.5356 23.175C79.8206 23.46 80.0431 23.815 80.2031 24.24C80.3631 24.66 80.4431 25.14 80.4431 25.68C80.4431 25.89 80.4206 26.03 80.3756 26.1C80.3306 26.17 80.2456 26.205 80.1206 26.205H75.0431C75.0581 26.685 75.1231 27.1025 75.2381 27.4575C75.3581 27.8125 75.5231 28.11 75.7331 28.35C75.9431 28.585 76.1931 28.7625 76.4831 28.8825C76.7731 28.9975 77.0981 29.055 77.4581 29.055C77.7931 29.055 78.0806 29.0175 78.3206 28.9425C78.5656 28.8625 78.7756 28.7775 78.9506 28.6875C79.1256 28.5975 79.2706 28.515 79.3856 28.44C79.5056 28.36 79.6081 28.32 79.6931 28.32C79.8031 28.32 79.8881 28.3625 79.9481 28.4475L80.3231 28.935ZM83.4629 18.9525V30H82.1279V18.9525H83.4629ZM90.7128 25.3725C90.7128 25.0625 90.6678 24.78 90.5778 24.525C90.4928 24.265 90.3653 24.0425 90.1953 23.8575C90.0303 23.6675 89.8278 23.5225 89.5878 23.4225C89.3478 23.3175 89.0753 23.265 88.7703 23.265C88.1303 23.265 87.6228 23.4525 87.2478 23.8275C86.8778 24.1975 86.6478 24.7125 86.5578 25.3725H90.7128ZM91.7928 28.935C91.6278 29.135 91.4303 29.31 91.2003 29.46C90.9703 29.605 90.7228 29.725 90.4578 29.82C90.1978 29.915 89.9278 29.985 89.6478 30.03C89.3678 30.08 89.0903 30.105 88.8153 30.105C88.2903 30.105 87.8053 30.0175 87.3603 29.8425C86.9203 29.6625 86.5378 29.4025 86.2128 29.0625C85.8928 28.7175 85.6428 28.2925 85.4628 27.7875C85.2828 27.2825 85.1928 26.7025 85.1928 26.0475C85.1928 25.5175 85.2728 25.0225 85.4328 24.5625C85.5978 24.1025 85.8328 23.705 86.1378 23.37C86.4428 23.03 86.8153 22.765 87.2553 22.575C87.6953 22.38 88.1903 22.2825 88.7403 22.2825C89.1953 22.2825 89.6153 22.36 90.0003 22.515C90.3903 22.665 90.7253 22.885 91.0053 23.175C91.2903 23.46 91.5128 23.815 91.6728 24.24C91.8328 24.66 91.9128 25.14 91.9128 25.68C91.9128 25.89 91.8903 26.03 91.8453 26.1C91.8003 26.17 91.7153 26.205 91.5903 26.205H86.5128C86.5278 26.685 86.5928 27.1025 86.7078 27.4575C86.8278 27.8125 86.9928 28.11 87.2028 28.35C87.4128 28.585 87.6628 28.7625 87.9528 28.8825C88.2428 28.9975 88.5678 29.055 88.9278 29.055C89.2628 29.055 89.5503 29.0175 89.7903 28.9425C90.0353 28.8625 90.2453 28.7775 90.4203 28.6875C90.5953 28.5975 90.7403 28.515 90.8553 28.44C90.9753 28.36 91.0778 28.32 91.1628 28.32C91.2728 28.32 91.3578 28.3625 91.4178 28.4475L91.7928 28.935ZM98.8401 23.7525C98.8001 23.8075 98.7601 23.85 98.7201 23.88C98.6801 23.91 98.6251 23.925 98.5551 23.925C98.4801 23.925 98.3976 23.895 98.3076 23.835C98.2176 23.77 98.1051 23.7 97.9701 23.625C97.8401 23.55 97.6776 23.4825 97.4826 23.4225C97.2926 23.3575 97.0576 23.325 96.7776 23.325C96.4026 23.325 96.0726 23.3925 95.7876 23.5275C95.5026 23.6575 95.2626 23.8475 95.0676 24.0975C94.8776 24.3475 94.7326 24.65 94.6326 25.005C94.5376 25.36 94.4901 25.7575 94.4901 26.1975C94.4901 26.6575 94.5426 27.0675 94.6476 27.4275C94.7526 27.7825 94.9001 28.0825 95.0901 28.3275C95.2851 28.5675 95.5176 28.7525 95.7876 28.8825C96.0626 29.0075 96.3701 29.07 96.7101 29.07C97.0351 29.07 97.3026 29.0325 97.5126 28.9575C97.7226 28.8775 97.8951 28.79 98.0301 28.695C98.1701 28.6 98.2851 28.515 98.3751 28.44C98.4701 28.36 98.5626 28.32 98.6526 28.32C98.7626 28.32 98.8476 28.3625 98.9076 28.4475L99.2826 28.935C99.1176 29.14 98.9301 29.315 98.7201 29.46C98.5101 29.605 98.2826 29.7275 98.0376 29.8275C97.7976 29.9225 97.5451 29.9925 97.2801 30.0375C97.0151 30.0825 96.7451 30.105 96.4701 30.105C95.9951 30.105 95.5526 30.0175 95.1426 29.8425C94.7376 29.6675 94.3851 29.415 94.0851 29.085C93.7851 28.75 93.5501 28.34 93.3801 27.855C93.2101 27.37 93.1251 26.8175 93.1251 26.1975C93.1251 25.6325 93.2026 25.11 93.3576 24.63C93.5176 24.15 93.7476 23.7375 94.0476 23.3925C94.3526 23.0425 94.7251 22.77 95.1651 22.575C95.6101 22.38 96.1201 22.2825 96.6951 22.2825C97.2301 22.2825 97.7001 22.37 98.1051 22.545C98.5151 22.715 98.8776 22.9575 99.1926 23.2725L98.8401 23.7525ZM103.048 30.12C102.448 30.12 101.986 29.9525 101.661 29.6175C101.341 29.2825 101.181 28.8 101.181 28.17V23.52H100.266C100.186 23.52 100.118 23.4975 100.063 23.4525C100.008 23.4025 99.9807 23.3275 99.9807 23.2275V22.695L101.226 22.5375L101.533 20.19C101.548 20.115 101.581 20.055 101.631 20.01C101.686 19.96 101.756 19.935 101.841 19.935H102.516V22.5525H104.713V23.52H102.516V28.08C102.516 28.4 102.593 28.6375 102.748 28.7925C102.903 28.9475 103.103 29.025 103.348 29.025C103.488 29.025 103.608 29.0075 103.708 28.9725C103.813 28.9325 103.903 28.89 103.978 28.845C104.053 28.8 104.116 28.76 104.166 28.725C104.221 28.685 104.268 28.665 104.308 28.665C104.378 28.665 104.441 28.7075 104.496 28.7925L104.886 29.43C104.656 29.645 104.378 29.815 104.053 29.94C103.728 30.06 103.393 30.12 103.048 30.12ZM119.56 24.63C119.56 25.435 119.432 26.1675 119.177 26.8275C118.922 27.4875 118.562 28.0525 118.097 28.5225C117.632 28.9925 117.072 29.3575 116.417 29.6175C115.767 29.8725 115.047 30 114.257 30H110.245V19.2525H114.257C115.047 19.2525 115.767 19.3825 116.417 19.6425C117.072 19.8975 117.632 20.2625 118.097 20.7375C118.562 21.2075 118.922 21.7725 119.177 22.4325C119.432 23.0925 119.56 23.825 119.56 24.63ZM118.067 24.63C118.067 23.97 117.977 23.38 117.797 22.86C117.617 22.34 117.362 21.9 117.032 21.54C116.702 21.18 116.302 20.905 115.832 20.715C115.362 20.525 114.837 20.43 114.257 20.43H111.7V28.8225H114.257C114.837 28.8225 115.362 28.7275 115.832 28.5375C116.302 28.3475 116.702 28.075 117.032 27.72C117.362 27.36 117.617 26.92 117.797 26.4C117.977 25.88 118.067 25.29 118.067 24.63ZM124.441 22.2825C124.996 22.2825 125.496 22.375 125.941 22.56C126.386 22.745 126.766 23.0075 127.081 23.3475C127.396 23.6875 127.636 24.1 127.801 24.585C127.971 25.065 128.056 25.6025 128.056 26.1975C128.056 26.7975 127.971 27.3375 127.801 27.8175C127.636 28.2975 127.396 28.7075 127.081 29.0475C126.766 29.3875 126.386 29.65 125.941 29.835C125.496 30.015 124.996 30.105 124.441 30.105C123.881 30.105 123.376 30.015 122.926 29.835C122.481 29.65 122.101 29.3875 121.786 29.0475C121.471 28.7075 121.228 28.2975 121.058 27.8175C120.893 27.3375 120.811 26.7975 120.811 26.1975C120.811 25.6025 120.893 25.065 121.058 24.585C121.228 24.1 121.471 23.6875 121.786 23.3475C122.101 23.0075 122.481 22.745 122.926 22.56C123.376 22.375 123.881 22.2825 124.441 22.2825ZM124.441 29.0625C125.191 29.0625 125.751 28.8125 126.121 28.3125C126.491 27.8075 126.676 27.105 126.676 26.205C126.676 25.3 126.491 24.595 126.121 24.09C125.751 23.585 125.191 23.3325 124.441 23.3325C124.061 23.3325 123.728 23.3975 123.443 23.5275C123.163 23.6575 122.928 23.845 122.738 24.09C122.553 24.335 122.413 24.6375 122.318 24.9975C122.228 25.3525 122.183 25.755 122.183 26.205C122.183 27.105 122.368 27.8075 122.738 28.3125C123.113 28.8125 123.681 29.0625 124.441 29.0625ZM135.036 23.7525C134.996 23.8075 134.956 23.85 134.916 23.88C134.876 23.91 134.821 23.925 134.751 23.925C134.676 23.925 134.594 23.895 134.504 23.835C134.414 23.77 134.301 23.7 134.166 23.625C134.036 23.55 133.874 23.4825 133.679 23.4225C133.489 23.3575 133.254 23.325 132.974 23.325C132.599 23.325 132.269 23.3925 131.984 23.5275C131.699 23.6575 131.459 23.8475 131.264 24.0975C131.074 24.3475 130.929 24.65 130.829 25.005C130.734 25.36 130.686 25.7575 130.686 26.1975C130.686 26.6575 130.739 27.0675 130.844 27.4275C130.949 27.7825 131.096 28.0825 131.286 28.3275C131.481 28.5675 131.714 28.7525 131.984 28.8825C132.259 29.0075 132.566 29.07 132.906 29.07C133.231 29.07 133.499 29.0325 133.709 28.9575C133.919 28.8775 134.091 28.79 134.226 28.695C134.366 28.6 134.481 28.515 134.571 28.44C134.666 28.36 134.759 28.32 134.849 28.32C134.959 28.32 135.044 28.3625 135.104 28.4475L135.479 28.935C135.314 29.14 135.126 29.315 134.916 29.46C134.706 29.605 134.479 29.7275 134.234 29.8275C133.994 29.9225 133.741 29.9925 133.476 30.0375C133.211 30.0825 132.941 30.105 132.666 30.105C132.191 30.105 131.749 30.0175 131.339 29.8425C130.934 29.6675 130.581 29.415 130.281 29.085C129.981 28.75 129.746 28.34 129.576 27.855C129.406 27.37 129.321 26.8175 129.321 26.1975C129.321 25.6325 129.399 25.11 129.554 24.63C129.714 24.15 129.944 23.7375 130.244 23.3925C130.549 23.0425 130.921 22.77 131.361 22.575C131.806 22.38 132.316 22.2825 132.891 22.2825C133.426 22.2825 133.896 22.37 134.301 22.545C134.711 22.715 135.074 22.9575 135.389 23.2725L135.036 23.7525ZM143.159 22.4025V30H142.364C142.174 30 142.054 29.9075 142.004 29.7225L141.899 28.905C141.569 29.27 141.199 29.565 140.789 29.79C140.379 30.01 139.909 30.12 139.379 30.12C138.964 30.12 138.597 30.0525 138.277 29.9175C137.962 29.7775 137.697 29.5825 137.482 29.3325C137.267 29.0825 137.104 28.78 136.994 28.425C136.889 28.07 136.837 27.6775 136.837 27.2475V22.4025H138.172V27.2475C138.172 27.8225 138.302 28.2675 138.562 28.5825C138.827 28.8975 139.229 29.055 139.769 29.055C140.164 29.055 140.532 28.9625 140.872 28.7775C141.217 28.5875 141.534 28.3275 141.824 27.9975V22.4025H143.159ZM145.276 30V22.4025H146.079C146.269 22.4025 146.386 22.495 146.431 22.68L146.529 23.46C146.809 23.115 147.124 22.8325 147.474 22.6125C147.824 22.3925 148.229 22.2825 148.689 22.2825C149.199 22.2825 149.611 22.425 149.926 22.71C150.246 22.995 150.476 23.38 150.616 23.865C150.726 23.59 150.866 23.3525 151.036 23.1525C151.211 22.9525 151.406 22.7875 151.621 22.6575C151.836 22.5275 152.064 22.4325 152.304 22.3725C152.549 22.3125 152.796 22.2825 153.046 22.2825C153.446 22.2825 153.801 22.3475 154.111 22.4775C154.426 22.6025 154.691 22.7875 154.906 23.0325C155.126 23.2775 155.294 23.58 155.409 23.94C155.524 24.295 155.581 24.7025 155.581 25.1625V30H154.239V25.1625C154.239 24.5675 154.109 24.1175 153.849 23.8125C153.589 23.5025 153.214 23.3475 152.724 23.3475C152.504 23.3475 152.294 23.3875 152.094 23.4675C151.899 23.5425 151.726 23.655 151.576 23.805C151.426 23.955 151.306 24.145 151.216 24.375C151.131 24.6 151.089 24.8625 151.089 25.1625V30H149.746V25.1625C149.746 24.5525 149.624 24.0975 149.379 23.7975C149.134 23.4975 148.776 23.3475 148.306 23.3475C147.976 23.3475 147.671 23.4375 147.391 23.6175C147.111 23.7925 146.854 24.0325 146.619 24.3375V30H145.276ZM162.695 25.3725C162.695 25.0625 162.65 24.78 162.56 24.525C162.475 24.265 162.348 24.0425 162.178 23.8575C162.013 23.6675 161.81 23.5225 161.57 23.4225C161.33 23.3175 161.058 23.265 160.753 23.265C160.113 23.265 159.605 23.4525 159.23 23.8275C158.86 24.1975 158.63 24.7125 158.54 25.3725H162.695ZM163.775 28.935C163.61 29.135 163.413 29.31 163.183 29.46C162.953 29.605 162.705 29.725 162.44 29.82C162.18 29.915 161.91 29.985 161.63 30.03C161.35 30.08 161.073 30.105 160.798 30.105C160.273 30.105 159.788 30.0175 159.343 29.8425C158.903 29.6625 158.52 29.4025 158.195 29.0625C157.875 28.7175 157.625 28.2925 157.445 27.7875C157.265 27.2825 157.175 26.7025 157.175 26.0475C157.175 25.5175 157.255 25.0225 157.415 24.5625C157.58 24.1025 157.815 23.705 158.12 23.37C158.425 23.03 158.798 22.765 159.238 22.575C159.678 22.38 160.173 22.2825 160.723 22.2825C161.178 22.2825 161.598 22.36 161.983 22.515C162.373 22.665 162.708 22.885 162.988 23.175C163.273 23.46 163.495 23.815 163.655 24.24C163.815 24.66 163.895 25.14 163.895 25.68C163.895 25.89 163.873 26.03 163.828 26.1C163.783 26.17 163.698 26.205 163.573 26.205H158.495C158.51 26.685 158.575 27.1025 158.69 27.4575C158.81 27.8125 158.975 28.11 159.185 28.35C159.395 28.585 159.645 28.7625 159.935 28.8825C160.225 28.9975 160.55 29.055 160.91 29.055C161.245 29.055 161.533 29.0175 161.773 28.9425C162.018 28.8625 162.228 28.7775 162.403 28.6875C162.578 28.5975 162.723 28.515 162.838 28.44C162.958 28.36 163.06 28.32 163.145 28.32C163.255 28.32 163.34 28.3625 163.4 28.4475L163.775 28.935ZM166.795 23.505C166.96 23.32 167.135 23.1525 167.32 23.0025C167.505 22.8525 167.7 22.725 167.905 22.62C168.115 22.51 168.335 22.4275 168.565 22.3725C168.8 22.3125 169.053 22.2825 169.323 22.2825C169.738 22.2825 170.103 22.3525 170.418 22.4925C170.738 22.6275 171.003 22.8225 171.213 23.0775C171.428 23.3275 171.59 23.63 171.7 23.985C171.81 24.34 171.865 24.7325 171.865 25.1625V30H170.523V25.1625C170.523 24.5875 170.39 24.1425 170.125 23.8275C169.865 23.5075 169.468 23.3475 168.933 23.3475C168.538 23.3475 168.168 23.4425 167.823 23.6325C167.483 23.8225 167.168 24.08 166.878 24.405V30H165.535V22.4025H166.338C166.528 22.4025 166.645 22.495 166.69 22.68L166.795 23.505ZM176.129 30.12C175.529 30.12 175.067 29.9525 174.742 29.6175C174.422 29.2825 174.262 28.8 174.262 28.17V23.52H173.347C173.267 23.52 173.199 23.4975 173.144 23.4525C173.089 23.4025 173.062 23.3275 173.062 23.2275V22.695L174.307 22.5375L174.614 20.19C174.629 20.115 174.662 20.055 174.712 20.01C174.767 19.96 174.837 19.935 174.922 19.935H175.597V22.5525H177.794V23.52H175.597V28.08C175.597 28.4 175.674 28.6375 175.829 28.7925C175.984 28.9475 176.184 29.025 176.429 29.025C176.569 29.025 176.689 29.0075 176.789 28.9725C176.894 28.9325 176.984 28.89 177.059 28.845C177.134 28.8 177.197 28.76 177.247 28.725C177.302 28.685 177.349 28.665 177.389 28.665C177.459 28.665 177.522 28.7075 177.577 28.7925L177.967 29.43C177.737 29.645 177.459 29.815 177.134 29.94C176.809 30.06 176.474 30.12 176.129 30.12ZM184.781 20.4375V24.195H189.198V25.38H184.781V30H183.326V19.2525H189.948V20.4375H184.781ZM192.115 23.925C192.355 23.405 192.65 23 193 22.71C193.35 22.415 193.778 22.2675 194.283 22.2675C194.443 22.2675 194.595 22.285 194.74 22.32C194.89 22.355 195.023 22.41 195.138 22.485L195.04 23.4825C195.01 23.6075 194.935 23.67 194.815 23.67C194.745 23.67 194.643 23.655 194.508 23.625C194.373 23.595 194.22 23.58 194.05 23.58C193.81 23.58 193.595 23.615 193.405 23.685C193.22 23.755 193.053 23.86 192.903 24C192.758 24.135 192.625 24.305 192.505 24.51C192.39 24.71 192.285 24.94 192.19 25.2V30H190.848V22.4025H191.613C191.758 22.4025 191.858 22.43 191.913 22.485C191.968 22.54 192.005 22.635 192.025 22.77L192.115 23.925ZM199.206 22.2825C199.761 22.2825 200.261 22.375 200.706 22.56C201.151 22.745 201.531 23.0075 201.846 23.3475C202.161 23.6875 202.401 24.1 202.566 24.585C202.736 25.065 202.821 25.6025 202.821 26.1975C202.821 26.7975 202.736 27.3375 202.566 27.8175C202.401 28.2975 202.161 28.7075 201.846 29.0475C201.531 29.3875 201.151 29.65 200.706 29.835C200.261 30.015 199.761 30.105 199.206 30.105C198.646 30.105 198.141 30.015 197.691 29.835C197.246 29.65 196.866 29.3875 196.551 29.0475C196.236 28.7075 195.994 28.2975 195.824 27.8175C195.659 27.3375 195.576 26.7975 195.576 26.1975C195.576 25.6025 195.659 25.065 195.824 24.585C195.994 24.1 196.236 23.6875 196.551 23.3475C196.866 23.0075 197.246 22.745 197.691 22.56C198.141 22.375 198.646 22.2825 199.206 22.2825ZM199.206 29.0625C199.956 29.0625 200.516 28.8125 200.886 28.3125C201.256 27.8075 201.441 27.105 201.441 26.205C201.441 25.3 201.256 24.595 200.886 24.09C200.516 23.585 199.956 23.3325 199.206 23.3325C198.826 23.3325 198.494 23.3975 198.209 23.5275C197.929 23.6575 197.694 23.845 197.504 24.09C197.319 24.335 197.179 24.6375 197.084 24.9975C196.994 25.3525 196.949 25.755 196.949 26.205C196.949 27.105 197.134 27.8075 197.504 28.3125C197.879 28.8125 198.446 29.0625 199.206 29.0625ZM204.515 30V22.4025H205.317C205.507 22.4025 205.625 22.495 205.67 22.68L205.767 23.46C206.047 23.115 206.362 22.8325 206.712 22.6125C207.062 22.3925 207.467 22.2825 207.927 22.2825C208.437 22.2825 208.85 22.425 209.165 22.71C209.485 22.995 209.715 23.38 209.855 23.865C209.965 23.59 210.105 23.3525 210.275 23.1525C210.45 22.9525 210.645 22.7875 210.86 22.6575C211.075 22.5275 211.302 22.4325 211.542 22.3725C211.787 22.3125 212.035 22.2825 212.285 22.2825C212.685 22.2825 213.04 22.3475 213.35 22.4775C213.665 22.6025 213.93 22.7875 214.145 23.0325C214.365 23.2775 214.532 23.58 214.647 23.94C214.762 24.295 214.82 24.7025 214.82 25.1625V30H213.477V25.1625C213.477 24.5675 213.347 24.1175 213.087 23.8125C212.827 23.5025 212.452 23.3475 211.962 23.3475C211.742 23.3475 211.532 23.3875 211.332 23.4675C211.137 23.5425 210.965 23.655 210.815 23.805C210.665 23.955 210.545 24.145 210.455 24.375C210.37 24.6 210.327 24.8625 210.327 25.1625V30H208.985V25.1625C208.985 24.5525 208.862 24.0975 208.617 23.7975C208.372 23.4975 208.015 23.3475 207.545 23.3475C207.215 23.3475 206.91 23.4375 206.63 23.6175C206.35 23.7925 206.092 24.0325 205.857 24.3375V30H204.515ZM229.731 24.8325V28.9575C229.191 29.3475 228.614 29.64 227.999 29.835C227.389 30.025 226.719 30.12 225.989 30.12C225.124 30.12 224.344 29.9875 223.649 29.7225C222.954 29.4525 222.359 29.0775 221.864 28.5975C221.374 28.1125 220.996 27.5325 220.731 26.8575C220.466 26.1825 220.334 25.44 220.334 24.63C220.334 23.81 220.461 23.0625 220.716 22.3875C220.976 21.7125 221.344 21.135 221.819 20.655C222.294 20.17 222.871 19.795 223.551 19.53C224.231 19.265 224.991 19.1325 225.831 19.1325C226.256 19.1325 226.651 19.165 227.016 19.23C227.381 19.29 227.719 19.38 228.029 19.5C228.339 19.615 228.626 19.7575 228.891 19.9275C229.156 20.0925 229.404 20.28 229.634 20.49L229.221 21.15C229.156 21.25 229.071 21.315 228.966 21.345C228.866 21.37 228.754 21.345 228.629 21.27C228.509 21.2 228.371 21.115 228.216 21.015C228.061 20.915 227.871 20.82 227.646 20.73C227.426 20.635 227.164 20.555 226.859 20.49C226.559 20.425 226.201 20.3925 225.786 20.3925C225.181 20.3925 224.634 20.4925 224.144 20.6925C223.654 20.8875 223.236 21.17 222.891 21.54C222.546 21.905 222.281 22.35 222.096 22.875C221.911 23.395 221.819 23.98 221.819 24.63C221.819 25.305 221.914 25.91 222.104 26.445C222.299 26.975 222.574 27.4275 222.929 27.8025C223.289 28.1725 223.724 28.455 224.234 28.65C224.744 28.845 225.316 28.9425 225.951 28.9425C226.451 28.9425 226.894 28.8875 227.279 28.7775C227.669 28.6625 228.049 28.505 228.419 28.305V25.9425H226.746C226.651 25.9425 226.574 25.915 226.514 25.86C226.459 25.805 226.431 25.7375 226.431 25.6575V24.8325H229.731ZM235.717 26.58C235.102 26.6 234.577 26.65 234.142 26.73C233.712 26.805 233.359 26.905 233.084 27.03C232.814 27.155 232.617 27.3025 232.492 27.4725C232.372 27.6425 232.312 27.8325 232.312 28.0425C232.312 28.2425 232.344 28.415 232.409 28.56C232.474 28.705 232.562 28.825 232.672 28.92C232.787 29.01 232.919 29.0775 233.069 29.1225C233.224 29.1625 233.389 29.1825 233.564 29.1825C233.799 29.1825 234.014 29.16 234.209 29.115C234.404 29.065 234.587 28.995 234.757 28.905C234.932 28.815 235.097 28.7075 235.252 28.5825C235.412 28.4575 235.567 28.315 235.717 28.155V26.58ZM231.404 23.475C231.824 23.07 232.277 22.7675 232.762 22.5675C233.247 22.3675 233.784 22.2675 234.374 22.2675C234.799 22.2675 235.177 22.3375 235.507 22.4775C235.837 22.6175 236.114 22.8125 236.339 23.0625C236.564 23.3125 236.734 23.615 236.849 23.97C236.964 24.325 237.022 24.715 237.022 25.14V30H236.429C236.299 30 236.199 29.98 236.129 29.94C236.059 29.895 236.004 29.81 235.964 29.685L235.814 28.965C235.614 29.15 235.419 29.315 235.229 29.46C235.039 29.6 234.839 29.72 234.629 29.82C234.419 29.915 234.194 29.9875 233.954 30.0375C233.719 30.0925 233.457 30.12 233.167 30.12C232.872 30.12 232.594 30.08 232.334 30C232.074 29.915 231.847 29.79 231.652 29.625C231.462 29.46 231.309 29.2525 231.194 29.0025C231.084 28.7475 231.029 28.4475 231.029 28.1025C231.029 27.8025 231.112 27.515 231.277 27.24C231.442 26.96 231.709 26.7125 232.079 26.4975C232.449 26.2825 232.932 26.1075 233.527 25.9725C234.122 25.8325 234.852 25.7525 235.717 25.7325V25.14C235.717 24.55 235.589 24.105 235.334 23.805C235.079 23.5 234.707 23.3475 234.217 23.3475C233.887 23.3475 233.609 23.39 233.384 23.475C233.164 23.555 232.972 23.6475 232.807 23.7525C232.647 23.8525 232.507 23.945 232.387 24.03C232.272 24.11 232.157 24.15 232.042 24.15C231.952 24.15 231.874 24.1275 231.809 24.0825C231.744 24.0325 231.689 23.9725 231.644 23.9025L231.404 23.475ZM240.436 18.9525V30H239.101V18.9525H240.436ZM243.98 18.9525V30H242.645V18.9525H243.98ZM250.263 26.58C249.648 26.6 249.123 26.65 248.688 26.73C248.258 26.805 247.905 26.905 247.63 27.03C247.36 27.155 247.163 27.3025 247.038 27.4725C246.918 27.6425 246.858 27.8325 246.858 28.0425C246.858 28.2425 246.89 28.415 246.955 28.56C247.02 28.705 247.108 28.825 247.218 28.92C247.333 29.01 247.465 29.0775 247.615 29.1225C247.77 29.1625 247.935 29.1825 248.11 29.1825C248.345 29.1825 248.56 29.16 248.755 29.115C248.95 29.065 249.133 28.995 249.303 28.905C249.478 28.815 249.643 28.7075 249.798 28.5825C249.958 28.4575 250.113 28.315 250.263 28.155V26.58ZM245.95 23.475C246.37 23.07 246.823 22.7675 247.308 22.5675C247.793 22.3675 248.33 22.2675 248.92 22.2675C249.345 22.2675 249.723 22.3375 250.053 22.4775C250.383 22.6175 250.66 22.8125 250.885 23.0625C251.11 23.3125 251.28 23.615 251.395 23.97C251.51 24.325 251.568 24.715 251.568 25.14V30H250.975C250.845 30 250.745 29.98 250.675 29.94C250.605 29.895 250.55 29.81 250.51 29.685L250.36 28.965C250.16 29.15 249.965 29.315 249.775 29.46C249.585 29.6 249.385 29.72 249.175 29.82C248.965 29.915 248.74 29.9875 248.5 30.0375C248.265 30.0925 248.003 30.12 247.713 30.12C247.418 30.12 247.14 30.08 246.88 30C246.62 29.915 246.393 29.79 246.198 29.625C246.008 29.46 245.855 29.2525 245.74 29.0025C245.63 28.7475 245.575 28.4475 245.575 28.1025C245.575 27.8025 245.658 27.515 245.823 27.24C245.988 26.96 246.255 26.7125 246.625 26.4975C246.995 26.2825 247.478 26.1075 248.073 25.9725C248.668 25.8325 249.398 25.7525 250.263 25.7325V25.14C250.263 24.55 250.135 24.105 249.88 23.805C249.625 23.5 249.253 23.3475 248.763 23.3475C248.433 23.3475 248.155 23.39 247.93 23.475C247.71 23.555 247.518 23.6475 247.353 23.7525C247.193 23.8525 247.053 23.945 246.933 24.03C246.818 24.11 246.703 24.15 246.588 24.15C246.498 24.15 246.42 24.1275 246.355 24.0825C246.29 24.0325 246.235 23.9725 246.19 23.9025L245.95 23.475ZM254.869 23.925C255.109 23.405 255.404 23 255.754 22.71C256.104 22.415 256.531 22.2675 257.036 22.2675C257.196 22.2675 257.349 22.285 257.494 22.32C257.644 22.355 257.776 22.41 257.891 22.485L257.794 23.4825C257.764 23.6075 257.689 23.67 257.569 23.67C257.499 23.67 257.396 23.655 257.261 23.625C257.126 23.595 256.974 23.58 256.804 23.58C256.564 23.58 256.349 23.615 256.159 23.685C255.974 23.755 255.806 23.86 255.656 24C255.511 24.135 255.379 24.305 255.259 24.51C255.144 24.71 255.039 24.94 254.944 25.2V30H253.601V22.4025H254.366C254.511 22.4025 254.611 22.43 254.666 22.485C254.721 22.54 254.759 22.635 254.779 22.77L254.869 23.925ZM265.62 22.4025L261.383 32.2425C261.338 32.3425 261.28 32.4225 261.21 32.4825C261.145 32.5425 261.043 32.5725 260.903 32.5725H259.913L261.3 29.5575L258.165 22.4025H259.32C259.435 22.4025 259.525 22.4325 259.59 22.4925C259.66 22.5475 259.708 22.61 259.733 22.68L261.765 27.465C261.845 27.675 261.913 27.895 261.968 28.125C262.038 27.89 262.113 27.6675 262.193 27.4575L264.165 22.68C264.195 22.6 264.245 22.535 264.315 22.485C264.39 22.43 264.473 22.4025 264.563 22.4025H265.62Z" fill="#5B5B5B"/>
<path d="M66.508 37.9V39.904H68.864V40.536H66.508V43H65.732V37.268H69.264V37.9H66.508ZM70.8238 38.948V43H70.1118V38.948H70.8238ZM70.9758 37.676C70.9758 37.7453 70.9611 37.8107 70.9318 37.872C70.9051 37.9307 70.8678 37.984 70.8198 38.032C70.7745 38.0773 70.7198 38.1133 70.6558 38.14C70.5945 38.1667 70.5291 38.18 70.4598 38.18C70.3905 38.18 70.3251 38.1667 70.2638 38.14C70.2051 38.1133 70.1531 38.0773 70.1078 38.032C70.0625 37.984 70.0265 37.9307 69.9998 37.872C69.9731 37.8107 69.9598 37.7453 69.9598 37.676C69.9598 37.6067 69.9731 37.5413 69.9998 37.48C70.0265 37.416 70.0625 37.3613 70.1078 37.316C70.1531 37.268 70.2051 37.2307 70.2638 37.204C70.3251 37.1773 70.3905 37.164 70.4598 37.164C70.5291 37.164 70.5945 37.1773 70.6558 37.204C70.7198 37.2307 70.7745 37.268 70.8198 37.316C70.8678 37.3613 70.9051 37.416 70.9318 37.48C70.9611 37.5413 70.9758 37.6067 70.9758 37.676ZM72.7297 37.108V43H72.0177V37.108H72.7297ZM76.5963 40.532C76.5963 40.3667 76.5723 40.216 76.5243 40.08C76.479 39.9413 76.411 39.8227 76.3203 39.724C76.2323 39.6227 76.1243 39.5453 75.9963 39.492C75.8683 39.436 75.723 39.408 75.5603 39.408C75.219 39.408 74.9483 39.508 74.7483 39.708C74.551 39.9053 74.4283 40.18 74.3803 40.532H76.5963ZM77.1723 42.432C77.0843 42.5387 76.979 42.632 76.8563 42.712C76.7336 42.7893 76.6016 42.8533 76.4603 42.904C76.3216 42.9547 76.1776 42.992 76.0283 43.016C75.879 43.0427 75.731 43.056 75.5843 43.056C75.3043 43.056 75.0456 43.0093 74.8083 42.916C74.5736 42.82 74.3696 42.6813 74.1963 42.5C74.0256 42.316 73.8923 42.0893 73.7963 41.82C73.7003 41.5507 73.6523 41.2413 73.6523 40.892C73.6523 40.6093 73.695 40.3453 73.7803 40.1C73.8683 39.8547 73.9936 39.6427 74.1563 39.464C74.319 39.2827 74.5176 39.1413 74.7523 39.04C74.987 38.936 75.251 38.884 75.5443 38.884C75.787 38.884 76.011 38.9253 76.2163 39.008C76.4243 39.088 76.603 39.2053 76.7523 39.36C76.9043 39.512 77.023 39.7013 77.1083 39.928C77.1936 40.152 77.2363 40.408 77.2363 40.696C77.2363 40.808 77.2243 40.8827 77.2003 40.92C77.1763 40.9573 77.131 40.976 77.0643 40.976H74.3563C74.3643 41.232 74.399 41.4547 74.4603 41.644C74.5243 41.8333 74.6123 41.992 74.7243 42.12C74.8363 42.2453 74.9696 42.34 75.1243 42.404C75.279 42.4653 75.4523 42.496 75.6443 42.496C75.823 42.496 75.9763 42.476 76.1043 42.436C76.235 42.3933 76.347 42.348 76.4403 42.3C76.5336 42.252 76.611 42.208 76.6723 42.168C76.7363 42.1253 76.791 42.104 76.8363 42.104C76.895 42.104 76.9403 42.1267 76.9723 42.172L77.1723 42.432ZM80.4709 39.616C80.4389 39.6747 80.3895 39.704 80.3229 39.704C80.2829 39.704 80.2375 39.6893 80.1869 39.66C80.1362 39.6307 80.0735 39.5987 79.9989 39.564C79.9269 39.5267 79.8402 39.4933 79.7389 39.464C79.6375 39.432 79.5175 39.416 79.3789 39.416C79.2589 39.416 79.1509 39.432 79.0549 39.464C78.9589 39.4933 78.8762 39.5347 78.8069 39.588C78.7402 39.6413 78.6882 39.704 78.6509 39.776C78.6162 39.8453 78.5989 39.9213 78.5989 40.004C78.5989 40.108 78.6282 40.1947 78.6869 40.264C78.7482 40.3333 78.8282 40.3933 78.9269 40.444C79.0255 40.4947 79.1375 40.54 79.2629 40.58C79.3882 40.6173 79.5162 40.6587 79.6469 40.704C79.7802 40.7467 79.9095 40.7947 80.0349 40.848C80.1602 40.9013 80.2722 40.968 80.3709 41.048C80.4695 41.128 80.5482 41.2267 80.6069 41.344C80.6682 41.4587 80.6989 41.5973 80.6989 41.76C80.6989 41.9467 80.6655 42.12 80.5989 42.28C80.5322 42.4373 80.4335 42.5747 80.3029 42.692C80.1722 42.8067 80.0122 42.8973 79.8229 42.964C79.6335 43.0307 79.4149 43.064 79.1669 43.064C78.8842 43.064 78.6282 43.0187 78.3989 42.928C78.1695 42.8347 77.9749 42.716 77.8149 42.572L77.9829 42.3C78.0042 42.2653 78.0295 42.2387 78.0589 42.22C78.0882 42.2013 78.1255 42.192 78.1709 42.192C78.2189 42.192 78.2695 42.2107 78.3229 42.248C78.3762 42.2853 78.4402 42.3267 78.5149 42.372C78.5922 42.4173 78.6855 42.4587 78.7949 42.496C78.9042 42.5333 79.0402 42.552 79.2029 42.552C79.3415 42.552 79.4629 42.5347 79.5669 42.5C79.6709 42.4627 79.7575 42.4133 79.8269 42.352C79.8962 42.2907 79.9469 42.22 79.9789 42.14C80.0135 42.06 80.0309 41.9747 80.0309 41.884C80.0309 41.772 80.0002 41.68 79.9389 41.608C79.8802 41.5333 79.8015 41.4707 79.7029 41.42C79.6042 41.3667 79.4909 41.3213 79.3629 41.284C79.2375 41.244 79.1082 41.2027 78.9749 41.16C78.8442 41.1173 78.7149 41.0693 78.5869 41.016C78.4615 40.96 78.3495 40.8907 78.2509 40.808C78.1522 40.7253 78.0722 40.624 78.0109 40.504C77.9522 40.3813 77.9229 40.2333 77.9229 40.06C77.9229 39.9053 77.9549 39.7573 78.0189 39.616C78.0829 39.472 78.1762 39.3467 78.2989 39.24C78.4215 39.1307 78.5722 39.044 78.7509 38.98C78.9295 38.916 79.1335 38.884 79.3629 38.884C79.6295 38.884 79.8682 38.9267 80.0789 39.012C80.2922 39.0947 80.4762 39.2093 80.6309 39.356L80.4709 39.616ZM85.9787 39.616C85.9467 39.6747 85.8974 39.704 85.8307 39.704C85.7907 39.704 85.7454 39.6893 85.6947 39.66C85.644 39.6307 85.5814 39.5987 85.5067 39.564C85.4347 39.5267 85.348 39.4933 85.2467 39.464C85.1454 39.432 85.0254 39.416 84.8867 39.416C84.7667 39.416 84.6587 39.432 84.5627 39.464C84.4667 39.4933 84.384 39.5347 84.3147 39.588C84.248 39.6413 84.196 39.704 84.1587 39.776C84.124 39.8453 84.1067 39.9213 84.1067 40.004C84.1067 40.108 84.136 40.1947 84.1947 40.264C84.256 40.3333 84.336 40.3933 84.4347 40.444C84.5334 40.4947 84.6454 40.54 84.7707 40.58C84.896 40.6173 85.024 40.6587 85.1547 40.704C85.288 40.7467 85.4174 40.7947 85.5427 40.848C85.668 40.9013 85.78 40.968 85.8787 41.048C85.9774 41.128 86.056 41.2267 86.1147 41.344C86.176 41.4587 86.2067 41.5973 86.2067 41.76C86.2067 41.9467 86.1734 42.12 86.1067 42.28C86.04 42.4373 85.9414 42.5747 85.8107 42.692C85.68 42.8067 85.52 42.8973 85.3307 42.964C85.1414 43.0307 84.9227 43.064 84.6747 43.064C84.392 43.064 84.136 43.0187 83.9067 42.928C83.6774 42.8347 83.4827 42.716 83.3227 42.572L83.4907 42.3C83.512 42.2653 83.5374 42.2387 83.5667 42.22C83.596 42.2013 83.6334 42.192 83.6787 42.192C83.7267 42.192 83.7774 42.2107 83.8307 42.248C83.884 42.2853 83.948 42.3267 84.0227 42.372C84.1 42.4173 84.1934 42.4587 84.3027 42.496C84.412 42.5333 84.548 42.552 84.7107 42.552C84.8494 42.552 84.9707 42.5347 85.0747 42.5C85.1787 42.4627 85.2654 42.4133 85.3347 42.352C85.404 42.2907 85.4547 42.22 85.4867 42.14C85.5214 42.06 85.5387 41.9747 85.5387 41.884C85.5387 41.772 85.508 41.68 85.4467 41.608C85.388 41.5333 85.3094 41.4707 85.2107 41.42C85.112 41.3667 84.9987 41.3213 84.8707 41.284C84.7454 41.244 84.616 41.2027 84.4827 41.16C84.352 41.1173 84.2227 41.0693 84.0947 41.016C83.9694 40.96 83.8574 40.8907 83.7587 40.808C83.66 40.7253 83.58 40.624 83.5187 40.504C83.46 40.3813 83.4307 40.2333 83.4307 40.06C83.4307 39.9053 83.4627 39.7573 83.5267 39.616C83.5907 39.472 83.684 39.3467 83.8067 39.24C83.9294 39.1307 84.08 39.044 84.2587 38.98C84.4374 38.916 84.6414 38.884 84.8707 38.884C85.1374 38.884 85.376 38.9267 85.5867 39.012C85.8 39.0947 85.984 39.2093 86.1387 39.356L85.9787 39.616ZM87.7956 39.488C87.969 39.304 88.161 39.1573 88.3716 39.048C88.5823 38.9387 88.825 38.884 89.0996 38.884C89.321 38.884 89.5156 38.9213 89.6836 38.996C89.8543 39.068 89.9956 39.172 90.1076 39.308C90.2223 39.4413 90.309 39.6027 90.3676 39.792C90.4263 39.9813 90.4556 40.1907 90.4556 40.42V43H89.7396V40.42C89.7396 40.1133 89.669 39.876 89.5276 39.708C89.389 39.5373 89.177 39.452 88.8916 39.452C88.681 39.452 88.4836 39.5027 88.2996 39.604C88.1183 39.7053 87.9503 39.8427 87.7956 40.016V43H87.0796V37.108H87.7956V39.488ZM93.2486 38.884C93.5446 38.884 93.8112 38.9333 94.0486 39.032C94.2859 39.1307 94.4886 39.2707 94.6566 39.452C94.8246 39.6333 94.9526 39.8533 95.0406 40.112C95.1312 40.368 95.1766 40.6547 95.1766 40.972C95.1766 41.292 95.1312 41.58 95.0406 41.836C94.9526 42.092 94.8246 42.3107 94.6566 42.492C94.4886 42.6733 94.2859 42.8133 94.0486 42.912C93.8112 43.008 93.5446 43.056 93.2486 43.056C92.9499 43.056 92.6806 43.008 92.4406 42.912C92.2032 42.8133 92.0006 42.6733 91.8326 42.492C91.6646 42.3107 91.5352 42.092 91.4446 41.836C91.3566 41.58 91.3126 41.292 91.3126 40.972C91.3126 40.6547 91.3566 40.368 91.4446 40.112C91.5352 39.8533 91.6646 39.6333 91.8326 39.452C92.0006 39.2707 92.2032 39.1307 92.4406 39.032C92.6806 38.9333 92.9499 38.884 93.2486 38.884ZM93.2486 42.5C93.6486 42.5 93.9472 42.3667 94.1446 42.1C94.3419 41.8307 94.4406 41.456 94.4406 40.976C94.4406 40.4933 94.3419 40.1173 94.1446 39.848C93.9472 39.5787 93.6486 39.444 93.2486 39.444C93.0459 39.444 92.8686 39.4787 92.7166 39.548C92.5672 39.6173 92.4419 39.7173 92.3406 39.848C92.2419 39.9787 92.1672 40.14 92.1166 40.332C92.0686 40.5213 92.0446 40.736 92.0446 40.976C92.0446 41.456 92.1432 41.8307 92.3406 42.1C92.5406 42.3667 92.8432 42.5 93.2486 42.5ZM99.4116 38.948V43H98.9876C98.8863 43 98.8223 42.9507 98.7956 42.852L98.7396 42.416C98.5636 42.6107 98.3663 42.768 98.1476 42.888C97.929 43.0053 97.6783 43.064 97.3956 43.064C97.1743 43.064 96.9783 43.028 96.8076 42.956C96.6396 42.8813 96.4983 42.7773 96.3836 42.644C96.269 42.5107 96.1823 42.3493 96.1236 42.16C96.0676 41.9707 96.0396 41.7613 96.0396 41.532V38.948H96.7516V41.532C96.7516 41.8387 96.821 42.076 96.9596 42.244C97.101 42.412 97.3156 42.496 97.6036 42.496C97.8143 42.496 98.0103 42.4467 98.1916 42.348C98.3756 42.2467 98.545 42.108 98.6996 41.932V38.948H99.4116ZM101.277 37.108V43H100.565V37.108H101.277ZM105.071 39.912C104.938 39.7333 104.794 39.6093 104.639 39.54C104.485 39.468 104.311 39.432 104.119 39.432C103.743 39.432 103.454 39.5667 103.251 39.836C103.049 40.1053 102.947 40.4893 102.947 40.988C102.947 41.252 102.97 41.4787 103.015 41.668C103.061 41.8547 103.127 42.0093 103.215 42.132C103.303 42.252 103.411 42.34 103.539 42.396C103.667 42.452 103.813 42.48 103.975 42.48C104.21 42.48 104.414 42.4267 104.587 42.32C104.763 42.2133 104.925 42.0627 105.071 41.868V39.912ZM105.783 37.108V43H105.359C105.258 43 105.194 42.9507 105.167 42.852L105.103 42.36C104.93 42.568 104.733 42.736 104.511 42.864C104.29 42.992 104.034 43.056 103.743 43.056C103.511 43.056 103.301 43.012 103.111 42.924C102.922 42.8333 102.761 42.7013 102.627 42.528C102.494 42.3547 102.391 42.1387 102.319 41.88C102.247 41.6213 102.211 41.324 102.211 40.988C102.211 40.6893 102.251 40.412 102.331 40.156C102.411 39.8973 102.526 39.6733 102.675 39.484C102.825 39.2947 103.007 39.1467 103.223 39.04C103.442 38.9307 103.687 38.876 103.959 38.876C104.207 38.876 104.419 38.9187 104.595 39.004C104.774 39.0867 104.933 39.2027 105.071 39.352V37.108H105.783ZM109.671 42.024C109.801 42.2 109.944 42.324 110.099 42.396C110.256 42.468 110.428 42.504 110.615 42.504C110.996 42.504 111.288 42.3693 111.491 42.1C111.693 41.8307 111.795 41.4293 111.795 40.896C111.795 40.4 111.704 40.036 111.523 39.804C111.344 39.5693 111.088 39.452 110.755 39.452C110.523 39.452 110.32 39.5053 110.147 39.612C109.976 39.7187 109.817 39.8693 109.671 40.064V42.024ZM109.671 39.532C109.841 39.3347 110.033 39.1773 110.247 39.06C110.463 38.9427 110.711 38.884 110.991 38.884C111.228 38.884 111.441 38.9293 111.631 39.02C111.823 39.1107 111.985 39.2427 112.119 39.416C112.252 39.5867 112.353 39.7947 112.423 40.04C112.495 40.2853 112.531 40.5613 112.531 40.868C112.531 41.196 112.491 41.4947 112.411 41.764C112.331 42.0333 112.215 42.264 112.063 42.456C111.913 42.6453 111.731 42.7933 111.515 42.9C111.299 43.004 111.056 43.056 110.787 43.056C110.52 43.056 110.295 43.0067 110.111 42.908C109.929 42.8067 109.771 42.664 109.635 42.48L109.599 42.848C109.577 42.9493 109.516 43 109.415 43H108.955V37.108H109.671V39.532ZM116.143 40.532C116.143 40.3667 116.119 40.216 116.071 40.08C116.026 39.9413 115.958 39.8227 115.867 39.724C115.779 39.6227 115.671 39.5453 115.543 39.492C115.415 39.436 115.27 39.408 115.107 39.408C114.766 39.408 114.495 39.508 114.295 39.708C114.098 39.9053 113.975 40.18 113.927 40.532H116.143ZM116.719 42.432C116.631 42.5387 116.526 42.632 116.403 42.712C116.281 42.7893 116.149 42.8533 116.007 42.904C115.869 42.9547 115.725 42.992 115.575 43.016C115.426 43.0427 115.278 43.056 115.131 43.056C114.851 43.056 114.593 43.0093 114.355 42.916C114.121 42.82 113.917 42.6813 113.743 42.5C113.573 42.316 113.439 42.0893 113.343 41.82C113.247 41.5507 113.199 41.2413 113.199 40.892C113.199 40.6093 113.242 40.3453 113.327 40.1C113.415 39.8547 113.541 39.6427 113.703 39.464C113.866 39.2827 114.065 39.1413 114.299 39.04C114.534 38.936 114.798 38.884 115.091 38.884C115.334 38.884 115.558 38.9253 115.763 39.008C115.971 39.088 116.15 39.2053 116.299 39.36C116.451 39.512 116.57 39.7013 116.655 39.928C116.741 40.152 116.783 40.408 116.783 40.696C116.783 40.808 116.771 40.8827 116.747 40.92C116.723 40.9573 116.678 40.976 116.611 40.976H113.903C113.911 41.232 113.946 41.4547 114.007 41.644C114.071 41.8333 114.159 41.992 114.271 42.12C114.383 42.2453 114.517 42.34 114.671 42.404C114.826 42.4653 114.999 42.496 115.191 42.496C115.37 42.496 115.523 42.476 115.651 42.436C115.782 42.3933 115.894 42.348 115.987 42.3C116.081 42.252 116.158 42.208 116.219 42.168C116.283 42.1253 116.338 42.104 116.383 42.104C116.442 42.104 116.487 42.1267 116.519 42.172L116.719 42.432ZM120.441 37.108V43H119.729V37.108H120.441ZM124.307 40.532C124.307 40.3667 124.283 40.216 124.235 40.08C124.19 39.9413 124.122 39.8227 124.031 39.724C123.943 39.6227 123.835 39.5453 123.707 39.492C123.579 39.436 123.434 39.408 123.271 39.408C122.93 39.408 122.659 39.508 122.459 39.708C122.262 39.9053 122.139 40.18 122.091 40.532H124.307ZM124.883 42.432C124.795 42.5387 124.69 42.632 124.567 42.712C124.445 42.7893 124.313 42.8533 124.171 42.904C124.033 42.9547 123.889 42.992 123.739 43.016C123.59 43.0427 123.442 43.056 123.295 43.056C123.015 43.056 122.757 43.0093 122.519 42.916C122.285 42.82 122.081 42.6813 121.907 42.5C121.737 42.316 121.603 42.0893 121.507 41.82C121.411 41.5507 121.363 41.2413 121.363 40.892C121.363 40.6093 121.406 40.3453 121.491 40.1C121.579 39.8547 121.705 39.6427 121.867 39.464C122.03 39.2827 122.229 39.1413 122.463 39.04C122.698 38.936 122.962 38.884 123.255 38.884C123.498 38.884 123.722 38.9253 123.927 39.008C124.135 39.088 124.314 39.2053 124.463 39.36C124.615 39.512 124.734 39.7013 124.819 39.928C124.905 40.152 124.947 40.408 124.947 40.696C124.947 40.808 124.935 40.8827 124.911 40.92C124.887 40.9573 124.842 40.976 124.775 40.976H122.067C122.075 41.232 122.11 41.4547 122.171 41.644C122.235 41.8333 122.323 41.992 122.435 42.12C122.547 42.2453 122.681 42.34 122.835 42.404C122.99 42.4653 123.163 42.496 123.355 42.496C123.534 42.496 123.687 42.476 123.815 42.436C123.946 42.3933 124.058 42.348 124.151 42.3C124.245 42.252 124.322 42.208 124.383 42.168C124.447 42.1253 124.502 42.104 124.547 42.104C124.606 42.104 124.651 42.1267 124.683 42.172L124.883 42.432ZM128.182 39.616C128.15 39.6747 128.1 39.704 128.034 39.704C127.994 39.704 127.948 39.6893 127.898 39.66C127.847 39.6307 127.784 39.5987 127.71 39.564C127.638 39.5267 127.551 39.4933 127.45 39.464C127.348 39.432 127.228 39.416 127.09 39.416C126.97 39.416 126.862 39.432 126.766 39.464C126.67 39.4933 126.587 39.5347 126.518 39.588C126.451 39.6413 126.399 39.704 126.362 39.776C126.327 39.8453 126.31 39.9213 126.31 40.004C126.31 40.108 126.339 40.1947 126.398 40.264C126.459 40.3333 126.539 40.3933 126.638 40.444C126.736 40.4947 126.848 40.54 126.974 40.58C127.099 40.6173 127.227 40.6587 127.358 40.704C127.491 40.7467 127.62 40.7947 127.746 40.848C127.871 40.9013 127.983 40.968 128.082 41.048C128.18 41.128 128.259 41.2267 128.318 41.344C128.379 41.4587 128.41 41.5973 128.41 41.76C128.41 41.9467 128.376 42.12 128.31 42.28C128.243 42.4373 128.144 42.5747 128.014 42.692C127.883 42.8067 127.723 42.8973 127.534 42.964C127.344 43.0307 127.126 43.064 126.878 43.064C126.595 43.064 126.339 43.0187 126.11 42.928C125.88 42.8347 125.686 42.716 125.526 42.572L125.694 42.3C125.715 42.2653 125.74 42.2387 125.77 42.22C125.799 42.2013 125.836 42.192 125.882 42.192C125.93 42.192 125.98 42.2107 126.034 42.248C126.087 42.2853 126.151 42.3267 126.226 42.372C126.303 42.4173 126.396 42.4587 126.506 42.496C126.615 42.5333 126.751 42.552 126.914 42.552C127.052 42.552 127.174 42.5347 127.278 42.5C127.382 42.4627 127.468 42.4133 127.538 42.352C127.607 42.2907 127.658 42.22 127.69 42.14C127.724 42.06 127.742 41.9747 127.742 41.884C127.742 41.772 127.711 41.68 127.65 41.608C127.591 41.5333 127.512 41.4707 127.414 41.42C127.315 41.3667 127.202 41.3213 127.074 41.284C126.948 41.244 126.819 41.2027 126.686 41.16C126.555 41.1173 126.426 41.0693 126.298 41.016C126.172 40.96 126.06 40.8907 125.962 40.808C125.863 40.7253 125.783 40.624 125.722 40.504C125.663 40.3813 125.634 40.2333 125.634 40.06C125.634 39.9053 125.666 39.7573 125.73 39.616C125.794 39.472 125.887 39.3467 126.01 39.24C126.132 39.1307 126.283 39.044 126.462 38.98C126.64 38.916 126.844 38.884 127.074 38.884C127.34 38.884 127.579 38.9267 127.79 39.012C128.003 39.0947 128.187 39.2093 128.342 39.356L128.182 39.616ZM131.643 39.616C131.611 39.6747 131.561 39.704 131.495 39.704C131.455 39.704 131.409 39.6893 131.359 39.66C131.308 39.6307 131.245 39.5987 131.171 39.564C131.099 39.5267 131.012 39.4933 130.911 39.464C130.809 39.432 130.689 39.416 130.551 39.416C130.431 39.416 130.323 39.432 130.227 39.464C130.131 39.4933 130.048 39.5347 129.979 39.588C129.912 39.6413 129.86 39.704 129.823 39.776C129.788 39.8453 129.771 39.9213 129.771 40.004C129.771 40.108 129.8 40.1947 129.859 40.264C129.92 40.3333 130 40.3933 130.099 40.444C130.197 40.4947 130.309 40.54 130.435 40.58C130.56 40.6173 130.688 40.6587 130.819 40.704C130.952 40.7467 131.081 40.7947 131.207 40.848C131.332 40.9013 131.444 40.968 131.543 41.048C131.641 41.128 131.72 41.2267 131.779 41.344C131.84 41.4587 131.871 41.5973 131.871 41.76C131.871 41.9467 131.837 42.12 131.771 42.28C131.704 42.4373 131.605 42.5747 131.475 42.692C131.344 42.8067 131.184 42.8973 130.995 42.964C130.805 43.0307 130.587 43.064 130.339 43.064C130.056 43.064 129.8 43.0187 129.571 42.928C129.341 42.8347 129.147 42.716 128.987 42.572L129.155 42.3C129.176 42.2653 129.201 42.2387 129.231 42.22C129.26 42.2013 129.297 42.192 129.343 42.192C129.391 42.192 129.441 42.2107 129.495 42.248C129.548 42.2853 129.612 42.3267 129.687 42.372C129.764 42.4173 129.857 42.4587 129.967 42.496C130.076 42.5333 130.212 42.552 130.375 42.552C130.513 42.552 130.635 42.5347 130.739 42.5C130.843 42.4627 130.929 42.4133 130.999 42.352C131.068 42.2907 131.119 42.22 131.151 42.14C131.185 42.06 131.203 41.9747 131.203 41.884C131.203 41.772 131.172 41.68 131.111 41.608C131.052 41.5333 130.973 41.4707 130.875 41.42C130.776 41.3667 130.663 41.3213 130.535 41.284C130.409 41.244 130.28 41.2027 130.147 41.16C130.016 41.1173 129.887 41.0693 129.759 41.016C129.633 40.96 129.521 40.8907 129.423 40.808C129.324 40.7253 129.244 40.624 129.183 40.504C129.124 40.3813 129.095 40.2333 129.095 40.06C129.095 39.9053 129.127 39.7573 129.191 39.616C129.255 39.472 129.348 39.3467 129.471 39.24C129.593 39.1307 129.744 39.044 129.923 38.98C130.101 38.916 130.305 38.884 130.535 38.884C130.801 38.884 131.04 38.9267 131.251 39.012C131.464 39.0947 131.648 39.2093 131.803 39.356L131.643 39.616ZM136.035 43.064C135.715 43.064 135.468 42.9747 135.295 42.796C135.124 42.6173 135.039 42.36 135.039 42.024V39.544H134.551C134.508 39.544 134.472 39.532 134.443 39.508C134.413 39.4813 134.399 39.4413 134.399 39.388V39.104L135.063 39.02L135.227 37.768C135.235 37.728 135.252 37.696 135.279 37.672C135.308 37.6453 135.345 37.632 135.391 37.632H135.751V39.028H136.923V39.544H135.751V41.976C135.751 42.1467 135.792 42.2733 135.875 42.356C135.957 42.4387 136.064 42.48 136.195 42.48C136.269 42.48 136.333 42.4707 136.387 42.452C136.443 42.4307 136.491 42.408 136.531 42.384C136.571 42.36 136.604 42.3387 136.631 42.32C136.66 42.2987 136.685 42.288 136.707 42.288C136.744 42.288 136.777 42.3107 136.807 42.356L137.015 42.696C136.892 42.8107 136.744 42.9013 136.571 42.968C136.397 43.032 136.219 43.064 136.035 43.064ZM138.374 39.488C138.547 39.304 138.739 39.1573 138.95 39.048C139.16 38.9387 139.403 38.884 139.678 38.884C139.899 38.884 140.094 38.9213 140.262 38.996C140.432 39.068 140.574 39.172 140.686 39.308C140.8 39.4413 140.887 39.6027 140.946 39.792C141.004 39.9813 141.034 40.1907 141.034 40.42V43H140.318V40.42C140.318 40.1133 140.247 39.876 140.106 39.708C139.967 39.5373 139.755 39.452 139.47 39.452C139.259 39.452 139.062 39.5027 138.878 39.604C138.696 39.7053 138.528 39.8427 138.374 40.016V43H137.658V37.108H138.374V39.488ZM144.315 41.176C143.987 41.1867 143.707 41.2133 143.475 41.256C143.245 41.296 143.057 41.3493 142.911 41.416C142.767 41.4827 142.661 41.5613 142.595 41.652C142.531 41.7427 142.499 41.844 142.499 41.956C142.499 42.0627 142.516 42.1547 142.551 42.232C142.585 42.3093 142.632 42.3733 142.691 42.424C142.752 42.472 142.823 42.508 142.903 42.532C142.985 42.5533 143.073 42.564 143.167 42.564C143.292 42.564 143.407 42.552 143.511 42.528C143.615 42.5013 143.712 42.464 143.803 42.416C143.896 42.368 143.984 42.3107 144.067 42.244C144.152 42.1773 144.235 42.1013 144.315 42.016V41.176ZM142.015 39.52C142.239 39.304 142.48 39.1427 142.739 39.036C142.997 38.9293 143.284 38.876 143.599 38.876C143.825 38.876 144.027 38.9133 144.203 38.988C144.379 39.0627 144.527 39.1667 144.647 39.3C144.767 39.4333 144.857 39.5947 144.919 39.784C144.98 39.9733 145.011 40.1813 145.011 40.408V43H144.695C144.625 43 144.572 42.9893 144.535 42.968C144.497 42.944 144.468 42.8987 144.447 42.832L144.367 42.448C144.26 42.5467 144.156 42.6347 144.055 42.712C143.953 42.7867 143.847 42.8507 143.735 42.904C143.623 42.9547 143.503 42.9933 143.375 43.02C143.249 43.0493 143.109 43.064 142.955 43.064C142.797 43.064 142.649 43.0427 142.511 43C142.372 42.9547 142.251 42.888 142.147 42.8C142.045 42.712 141.964 42.6013 141.903 42.468C141.844 42.332 141.815 42.172 141.815 41.988C141.815 41.828 141.859 41.6747 141.947 41.528C142.035 41.3787 142.177 41.2467 142.375 41.132C142.572 41.0173 142.829 40.924 143.147 40.852C143.464 40.7773 143.853 40.7347 144.315 40.724V40.408C144.315 40.0933 144.247 39.856 144.111 39.696C143.975 39.5333 143.776 39.452 143.515 39.452C143.339 39.452 143.191 39.4747 143.071 39.52C142.953 39.5627 142.851 39.612 142.763 39.668C142.677 39.7213 142.603 39.7707 142.539 39.816C142.477 39.8587 142.416 39.88 142.355 39.88C142.307 39.88 142.265 39.868 142.231 39.844C142.196 39.8173 142.167 39.7853 142.143 39.748L142.015 39.52ZM146.767 39.536C146.855 39.4373 146.949 39.348 147.047 39.268C147.146 39.188 147.25 39.12 147.359 39.064C147.471 39.0053 147.589 38.9613 147.711 38.932C147.837 38.9 147.971 38.884 148.115 38.884C148.337 38.884 148.531 38.9213 148.699 38.996C148.87 39.068 149.011 39.172 149.123 39.308C149.238 39.4413 149.325 39.6027 149.383 39.792C149.442 39.9813 149.471 40.1907 149.471 40.42V43H148.755V40.42C148.755 40.1133 148.685 39.876 148.543 39.708C148.405 39.5373 148.193 39.452 147.907 39.452C147.697 39.452 147.499 39.5027 147.315 39.604C147.134 39.7053 146.966 39.8427 146.811 40.016V43H146.095V38.948H146.523C146.625 38.948 146.687 38.9973 146.711 39.096L146.767 39.536ZM153.487 39.432C153.786 39.368 154.06 39.336 154.311 39.336C154.61 39.336 154.874 39.38 155.103 39.468C155.332 39.556 155.523 39.6773 155.675 39.832C155.83 39.9867 155.946 40.1693 156.023 40.38C156.103 40.5907 156.143 40.82 156.143 41.068C156.143 41.372 156.09 41.6467 155.983 41.892C155.879 42.1373 155.734 42.348 155.547 42.524C155.363 42.6973 155.146 42.8307 154.895 42.924C154.644 43.0173 154.374 43.064 154.083 43.064C153.915 43.064 153.754 43.0467 153.599 43.012C153.444 42.98 153.299 42.936 153.163 42.88C153.03 42.824 152.906 42.76 152.791 42.688C152.676 42.616 152.575 42.54 152.487 42.46L152.707 42.156C152.755 42.0867 152.818 42.052 152.895 42.052C152.948 42.052 153.008 42.0733 153.075 42.116C153.142 42.156 153.223 42.2013 153.319 42.252C153.415 42.3027 153.527 42.3493 153.655 42.392C153.786 42.432 153.94 42.452 154.119 42.452C154.319 42.452 154.499 42.42 154.659 42.356C154.819 42.292 154.956 42.2013 155.071 42.084C155.186 41.964 155.274 41.8213 155.335 41.656C155.396 41.4907 155.427 41.3053 155.427 41.1C155.427 40.9213 155.4 40.76 155.347 40.616C155.296 40.472 155.218 40.3493 155.111 40.248C155.007 40.1467 154.876 40.068 154.719 40.012C154.562 39.956 154.378 39.928 154.167 39.928C154.023 39.928 153.872 39.94 153.715 39.964C153.56 39.988 153.402 40.0267 153.239 40.08L152.791 39.948L153.251 37.268H155.967V37.58C155.967 37.6813 155.935 37.7653 155.871 37.832C155.81 37.896 155.703 37.928 155.551 37.928H153.751L153.487 39.432ZM163.376 37.268V43H162.696V38.788C162.696 38.732 162.697 38.672 162.7 38.608C162.705 38.544 162.71 38.4787 162.716 38.412L160.748 41.996C160.686 42.116 160.593 42.176 160.468 42.176H160.356C160.23 42.176 160.137 42.116 160.076 41.996L158.068 38.396C158.084 38.5373 158.092 38.668 158.092 38.788V43H157.412V37.268H157.984C158.053 37.268 158.106 37.2747 158.144 37.288C158.181 37.3013 158.217 37.3387 158.252 37.4L160.232 40.928C160.264 40.992 160.294 41.0587 160.324 41.128C160.356 41.1973 160.385 41.268 160.412 41.34C160.438 41.268 160.466 41.1973 160.496 41.128C160.525 41.056 160.557 40.988 160.592 40.924L162.536 37.4C162.568 37.3387 162.602 37.3013 162.64 37.288C162.68 37.2747 162.734 37.268 162.804 37.268H163.376ZM166.853 42.384C167.075 42.384 167.265 42.3587 167.425 42.308C167.585 42.2573 167.716 42.1867 167.817 42.096C167.921 42.0027 167.997 41.8933 168.045 41.768C168.093 41.64 168.117 41.5 168.117 41.348C168.117 41.052 168.012 40.8187 167.801 40.648C167.591 40.4747 167.275 40.388 166.853 40.388H165.613V42.384H166.853ZM165.613 37.88V39.836H166.637C166.856 39.836 167.045 39.812 167.205 39.764C167.368 39.716 167.501 39.6493 167.605 39.564C167.712 39.4787 167.791 39.376 167.841 39.256C167.892 39.1333 167.917 39 167.917 38.856C167.917 38.5173 167.816 38.2707 167.613 38.116C167.411 37.9587 167.096 37.88 166.669 37.88H165.613ZM166.669 37.268C167.021 37.268 167.324 37.3027 167.577 37.372C167.833 37.4413 168.043 37.54 168.205 37.668C168.371 37.796 168.492 37.9533 168.569 38.14C168.647 38.324 168.685 38.532 168.685 38.764C168.685 38.9053 168.663 39.0413 168.617 39.172C168.575 39.3 168.509 39.42 168.421 39.532C168.333 39.644 168.221 39.7453 168.085 39.836C167.952 39.924 167.795 39.996 167.613 40.052C168.035 40.132 168.351 40.2827 168.561 40.504C168.775 40.7227 168.881 41.0107 168.881 41.368C168.881 41.6107 168.836 41.832 168.745 42.032C168.657 42.232 168.527 42.404 168.353 42.548C168.183 42.692 167.972 42.804 167.721 42.884C167.471 42.9613 167.185 43 166.865 43H164.841V37.268H166.669Z" fill="#4E4332"/>
<path fill-rule="evenodd" clip-rule="evenodd" d="M30.0042 14.8229H30.1895C30.7013 14.8229 31.0309 14.8229 31.3532 14.8521C32.741 14.9818 34.0574 15.5272 35.1303 16.4169C35.3782 16.624 35.6115 16.8573 35.9747 17.219L36.8147 18.0604C38.0484 19.2927 38.5224 19.7536 39.0707 20.0583C39.3886 20.2348 39.7255 20.3748 40.0755 20.4754C40.6778 20.6461 41.3384 20.6563 43.0826 20.6563H43.7024C45.5588 20.6563 47.0565 20.6563 48.2392 20.805C49.4657 20.9596 50.5084 21.2892 51.3659 22.0592C51.5088 22.1875 51.6459 22.3246 51.7742 22.4675C52.5457 23.325 52.8738 24.3677 53.0284 25.5942C53.1772 26.7783 53.1772 28.2746 53.1772 30.1311V33.4998C53.1772 36.1788 53.1772 38.3021 52.954 39.9631C52.7236 41.6723 52.2395 43.0563 51.1486 44.1486C50.0563 45.2394 48.6724 45.7236 46.9632 45.954C45.3007 46.1771 43.1788 46.1771 40.4984 46.1771H34.5017C31.8213 46.1771 29.698 46.1771 28.037 45.954C26.3278 45.7236 24.9438 45.2394 23.8515 44.1486C22.7607 43.0563 22.2765 41.6723 22.0461 39.9631C21.823 38.3006 21.823 36.1788 21.823 33.4983V23.0042C21.823 21.8419 21.823 21.104 21.9426 20.4667C22.2005 19.0968 22.8657 17.8365 23.8513 16.8507C24.8368 15.8649 26.0969 15.1993 27.4667 14.9411C28.1055 14.8215 28.8434 14.8215 30.0042 14.8215M30.1355 17.009C28.7982 17.009 28.282 17.0133 27.8707 17.0906C26.9342 17.2677 26.0728 17.7229 25.399 18.397C24.7252 19.0711 24.2703 19.9326 24.0936 20.8692C24.0149 21.2804 24.0105 21.7967 24.0105 23.134V33.4167C24.0105 36.1977 24.0134 38.1738 24.2147 39.6729C24.4115 41.1386 24.782 41.9844 25.3988 42.6013C26.0157 43.2181 26.8615 43.5886 28.3286 43.7854C29.8278 43.9867 31.8024 43.9896 34.5834 43.9896H40.4167C43.1978 43.9896 45.1738 43.9867 46.673 43.7854C48.1386 43.5886 48.9845 43.2181 49.6013 42.6013C50.2182 41.9844 50.5886 41.1386 50.7855 39.6715C50.9867 38.1738 50.9897 36.1977 50.9897 33.4167V30.2054C50.9897 28.2571 50.9882 26.8994 50.8584 25.8669C50.7315 24.8621 50.4997 24.3211 50.1482 23.9302C50.0709 23.8443 49.9892 23.7625 49.9032 23.6852C49.5124 23.3338 48.9699 23.1019 47.9665 22.975C46.9355 22.8452 45.5763 22.8438 43.628 22.8438H42.9222C41.3938 22.8438 40.408 22.8438 39.4761 22.5783C38.9657 22.4325 38.4713 22.2283 38.0061 21.9702C37.1603 21.4977 36.4632 20.8021 35.3811 19.72L35.2688 19.6063L34.4667 18.8042C34.2325 18.5594 33.9878 18.3248 33.7332 18.1013C32.9995 17.4929 32.0994 17.1198 31.1505 17.0308C30.8126 17.0094 30.474 17.0011 30.1355 17.009ZM37.8647 27.5833C37.8647 27.2933 37.9799 27.0151 38.185 26.81C38.3901 26.6048 38.6683 26.4896 38.9584 26.4896H46.2501C46.5402 26.4896 46.8184 26.6048 47.0235 26.81C47.2286 27.0151 47.3438 27.2933 47.3438 27.5833C47.3438 27.8734 47.2286 28.1516 47.0235 28.3567C46.8184 28.5619 46.5402 28.6771 46.2501 28.6771H38.9584C38.6683 28.6771 38.3901 28.5619 38.185 28.3567C37.9799 28.1516 37.8647 27.8734 37.8647 27.5833Z" fill="#5B5B5B"/>
</svg>
