<svg width="113" height="66" viewBox="0 0 113 66" fill="none" xmlns="http://www.w3.org/2000/svg">
<path d="M30.5814 8.51355C30.5814 12.1147 27.581 15.034 23.8798 15.034C20.1786 15.034 17.1782 12.1147 17.1782 8.51355C17.1782 4.91241 20.1786 1.9931 23.8798 1.9931C27.581 1.9931 30.5814 4.91241 30.5814 8.51355Z" fill="#FFB627"/>
<path d="M29.4499 33.6995C29.1602 33.6995 28.8887 33.5909 28.6353 33.3737C28.4181 33.1203 28.3095 32.8306 28.3095 32.5048C28.3095 31.6721 28.6715 30.8938 29.3956 30.1697C29.6128 30.0611 30.0472 29.8801 30.6989 29.6267C31.3505 29.3733 31.9297 29.2466 32.4366 29.2466C33.8123 29.2466 34.9346 29.6267 35.8034 30.3869C36.6723 31.111 37.1067 32.1609 37.1067 33.5366C37.1067 33.9348 37.0343 34.7856 36.8895 36.0889C36.7447 37.6094 36.6723 38.786 36.6723 39.6187C36.6723 42.1528 37.0162 44.1983 37.7041 45.755C37.9575 46.2619 38.3557 46.6601 38.8988 46.9497C39.4418 47.2393 39.9306 47.3841 40.365 47.3841C41.4149 47.3841 42.2656 47.2031 42.9173 46.8411C43.5689 46.4791 44.2749 45.8998 45.0351 45.1034C45.7954 44.3069 46.2841 43.4018 46.5014 42.3882C46.7548 41.3745 46.9358 39.9807 47.0444 38.2067C47.1168 37.0483 47.1892 36.1975 47.2616 35.6545C47.4426 33.9167 47.5331 32.4324 47.5331 31.2015C47.5331 30.4051 47.7504 29.7534 48.1848 29.2466C48.6192 28.7035 49.2166 28.432 49.9768 28.432C50.4113 28.432 50.9 28.5768 51.443 28.8664C52.0223 29.1199 52.4024 29.4276 52.5834 29.7896C52.8006 30.1516 52.9092 30.749 52.9092 31.5816C52.9092 32.0161 52.8549 32.4324 52.7463 32.8306C52.4929 33.7357 52.3662 34.8218 52.3662 36.0889L52.4205 38.9127C52.4205 41.4831 52.6015 43.3837 52.9636 44.6146C53.1446 45.1939 53.398 45.7912 53.7238 46.4067C54.0496 46.9859 54.3574 47.4747 54.647 47.8729C55.371 48.6693 55.8417 49.2305 56.0589 49.5563C56.2761 49.8459 56.3847 50.1356 56.3847 50.4252C56.3847 50.8596 56.1675 51.2759 55.7331 51.6742C55.3348 52.0362 54.9004 52.2172 54.4298 52.2172C53.0903 52.2172 51.9318 51.7647 50.9543 50.8596C49.9768 49.9545 49.2528 48.778 48.7821 47.3298C47.5512 48.7418 46.4109 49.8821 45.361 50.751C44.6369 51.2578 43.7499 51.638 42.7001 51.8914C41.6502 52.1086 40.6003 52.2172 39.5504 52.2172C38.1385 52.2172 36.7085 51.638 35.2604 50.4795C33.8123 49.321 32.8348 47.9815 32.328 46.461C32.2918 46.3886 32.1832 46.0989 32.0022 45.5921C31.8573 45.0853 31.7849 44.325 31.7849 43.3113C31.7849 41.9718 31.8573 40.2884 32.0022 38.2611C32.1108 36.9578 32.1651 35.7631 32.1651 34.677C32.1651 34.3512 32.0384 34.0796 31.7849 33.8624C31.5677 33.6452 31.3143 33.5366 31.0247 33.5366C30.8075 33.5366 30.554 33.5728 30.2644 33.6452C30.011 33.6814 29.7395 33.6995 29.4499 33.6995ZM72.7247 38.0438C72.8334 37.7542 73.2135 36.7043 73.8651 34.8942C74.553 33.0841 75.1865 31.7084 75.7658 30.7671C76.707 29.2828 77.5397 28.5406 78.2638 28.5406C79.2774 28.5406 80.0558 28.7397 80.5988 29.138C81.1419 29.5 81.4134 30.0249 81.4134 30.7128C81.4134 31.0386 81.2686 31.4911 80.979 32.0704C80.7256 32.6496 80.5807 32.9935 80.5445 33.1022C79.0964 36.288 77.7931 39.7092 76.6346 43.3656L75.4943 47.6014C75.0598 48.9771 74.3177 50.0994 73.2678 50.9682C72.2179 51.8009 70.987 52.2172 69.5751 52.2172C68.308 52.2172 67.1314 51.638 66.0453 50.4795C65.3937 49.4658 64.7058 48.1806 63.9818 46.6239C63.2939 45.0672 62.6966 43.5467 62.1897 42.0623L60.2891 36.3604C59.8909 35.2381 59.565 34.2787 59.3116 33.4823C59.0944 32.6858 58.9858 31.9618 58.9858 31.3101C58.9496 30.5499 59.1668 29.9344 59.6374 29.4638C60.1081 28.9931 60.7597 28.7578 61.5924 28.7578C62.5337 28.7578 63.2034 28.9569 63.6016 29.3552C63.9999 29.7172 64.3619 30.2964 64.6877 31.0929C64.8325 31.9256 65.2308 33.6271 65.8824 36.1975L66.2626 37.718C66.5884 38.9489 67.0047 40.1979 67.5115 41.465C68.0184 42.7321 68.5252 43.9449 69.0321 45.1034C68.9597 44.9224 69.2131 45.5197 69.7923 46.8954C70.1543 45.8455 70.5707 44.5603 71.0413 43.0398L72.7247 38.0438ZM105.899 52.2172C104.668 52.2172 103.726 52.0362 103.075 51.6742C102.423 51.2759 101.717 50.5519 100.957 49.502C100.016 50.3347 98.6038 51.0044 96.7212 51.5113C94.8749 52.0181 93.282 52.2715 91.9425 52.2715C89.7341 52.2715 87.9421 51.6742 86.5664 50.4795C85.2269 49.2486 84.5571 47.4566 84.5571 45.1034C84.5571 44.0897 84.8286 43.1665 85.3717 42.3339C85.9509 41.465 86.6931 40.7047 87.5981 40.0531C88.6118 39.3652 89.8065 38.8222 91.1822 38.424C92.5941 38.0257 93.8793 37.8266 95.0378 37.8266C96.9928 37.8266 98.7305 38.0076 100.251 38.3697V38.3154C100.251 36.3604 99.7623 35.0209 98.7848 34.2968C97.8435 33.5366 96.323 33.1565 94.2232 33.1565C92.8837 33.1565 91.7253 33.7538 90.7478 34.9485C90.3858 35.4191 89.6255 35.6545 88.467 35.6545C87.8878 35.6545 87.4533 35.4191 87.1637 34.9485C86.9103 34.4417 86.7836 33.9348 86.7836 33.428C86.7836 32.3781 87.218 31.473 88.0869 30.7128C88.9919 29.9525 90.078 29.3914 91.3451 29.0293C92.6122 28.6311 93.7888 28.432 94.8749 28.432C95.9248 28.432 97.1738 28.6492 98.6219 29.0837C100.07 29.5181 101.247 30.0973 102.152 30.8214C103.238 31.7627 104.07 32.8668 104.65 34.1339C105.265 35.3648 105.573 36.7224 105.573 38.2067C105.573 38.6774 105.537 39.3833 105.464 40.3246C105.392 41.4107 105.356 42.2977 105.356 42.9855C105.356 43.3113 105.319 43.7277 105.247 44.2345C105.175 44.8862 105.138 45.4292 105.138 45.8636C105.138 46.3343 105.283 46.7868 105.573 47.2212C105.862 47.6557 106.261 48.0177 106.768 48.3073C107.238 48.5607 107.546 48.8323 107.691 49.1219C107.835 49.4115 107.908 49.7373 107.908 50.0994C107.908 50.4614 107.673 50.9139 107.202 51.457C106.768 51.9638 106.333 52.2172 105.899 52.2172ZM95.0378 41.8451C93.6259 41.8451 92.3769 42.1166 91.2908 42.6597C90.2047 43.2027 89.6617 44.1621 89.6617 45.5378C89.6617 46.2257 89.897 46.8049 90.3676 47.2755C90.8745 47.7462 91.4175 47.9815 91.9968 47.9815C93.5535 47.9815 94.8568 47.8186 95.9067 47.4928C96.9566 47.1669 98.2237 46.5696 99.708 45.7007C99.889 45.1215 99.9976 44.3069 100.034 43.257C100.034 42.8588 100.052 42.5511 100.088 42.3339C98.1331 42.008 96.4497 41.8451 95.0378 41.8451Z" fill="#FFB627"/>
<path d="M19.4777 21.694C24.9972 34.3425 42.0151 11.5752 42.0151 11.5752M19.4777 21.694C19.4777 21.694 19.4777 8.58557 3.45628 8.58557M19.4777 21.694C19.4777 21.694 19.4777 36.9488 19.4777 44.078C19.4777 51.2071 19.4777 54.8867 2 46.4544" stroke="black" stroke-width="3.21961" stroke-linecap="round" stroke-linejoin="round"/>
</svg>
